<svg width="40" height="40" viewBox="0 0 40 40" fill="none" xmlns="http://www.w3.org/2000/svg">
<path d="M0.5 20C0.5 9.23045 9.23045 0.5 20 0.5C30.7696 0.5 39.5 9.23045 39.5 20C39.5 30.7696 30.7696 39.5 20 39.5C9.23045 39.5 0.5 30.7696 0.5 20Z" stroke="#0072A3"/>
<path d="M27.3459 15.2779C27.5542 15.1446 27.7192 14.9861 27.8315 14.8117C27.9438 14.6372 28.001 14.4502 28 14.2614C27.9989 14.0727 27.9396 13.8859 27.8254 13.712C27.7113 13.538 27.5445 13.3803 27.3348 13.248L26.0447 12.42C25.6225 12.151 25.0516 12 24.4567 12C23.8618 12 23.2909 12.151 22.8687 12.42L12.6554 18.9781C12.2356 19.2492 12 19.6159 12 19.9981C12 20.3803 12.2356 20.747 12.6554 21.0181L22.8687 27.5734C23.0761 27.7084 23.3233 27.8156 23.5958 27.8889C23.8683 27.9621 24.1608 27.9999 24.4562 28C24.7517 28.0001 25.0442 27.9626 25.3169 27.8896C25.5896 27.8166 25.837 27.7096 26.0447 27.5748L27.3348 26.7468C27.5437 26.6142 27.7097 26.4564 27.8234 26.2825C27.9371 26.1085 27.9961 25.9219 27.9972 25.7333C27.9982 25.5447 27.9412 25.3579 27.8295 25.1834C27.7177 25.009 27.5534 24.8505 27.3459 24.7169L19.994 19.9967L27.3459 15.2779V15.2779Z" fill="#0072A3"/>
</svg>
