<svg width="40" height="40" viewBox="0 0 40 40" fill="none" xmlns="http://www.w3.org/2000/svg">
<path d="M0.5 20C0.5 9.23045 9.23045 0.5 20 0.5C30.7696 0.5 39.5 9.23045 39.5 20C39.5 30.7696 30.7696 39.5 20 39.5C9.23045 39.5 0.5 30.7696 0.5 20Z" stroke="#0072A3"/>
<path d="M12.6541 24.722C12.4458 24.8553 12.2808 25.0137 12.1685 25.1882C12.0562 25.3627 11.999 25.5497 12 25.7385C12.0011 25.9272 12.0604 26.114 12.1746 26.288C12.2887 26.4619 12.4555 26.6196 12.6652 26.752L13.9553 27.58C14.3775 27.849 14.9484 28 15.5433 28C16.1382 28 16.7091 27.849 17.1313 27.58L27.3446 21.023C27.7644 20.7519 28 20.3852 28 20.003C28 19.6208 27.7644 19.2541 27.3446 18.983L17.1313 12.4274C16.924 12.2923 16.677 12.1849 16.4045 12.1115C16.1321 12.0382 15.8397 12.0003 15.5442 12C15.2488 11.9997 14.9562 12.0371 14.6834 12.11C14.4107 12.1829 14.1632 12.2898 13.9553 12.4245L12.6652 13.2525C12.4563 13.3852 12.2903 13.543 12.1766 13.7169C12.0629 13.8908 12.0039 14.0775 12.0028 14.2661C12.0018 14.4547 12.0588 14.6416 12.1705 14.816C12.2823 14.9904 12.4466 15.149 12.6541 15.2825L20.006 20.003L12.6541 24.722Z" fill="#0072A3"/>
</svg>
