<svg width="67" height="70" viewBox="0 0 67 70" fill="none" xmlns="http://www.w3.org/2000/svg">
<path d="M32.1947 7.23214C32.509 7.66747 32.6735 8.19316 32.6631 8.73003C32.6528 9.26691 32.4684 9.7859 32.1375 10.2088C30.235 12.6428 26.2013 17.5164 22.1904 20.4759C17.2426 24.1325 12.7346 25.7723 10.4378 26.4408C9.42084 26.7379 8.33528 26.3436 7.72394 25.4809C6.21559 23.3612 3.81594 18.819 4.75866 12.3914C6.08989 3.24986 16.5627 -1.16093 23.3502 1.03304C30.1378 3.227 32.1947 7.23214 32.1947 7.23214Z" fill="#FFC107"/>
<path d="M11.3464 24.7321C10.6779 25.012 10.0723 24.2293 10.5008 23.6522C11.7578 21.9725 14.1974 19.2186 18.6482 15.6305C23.4761 11.7397 26.8984 10.3627 28.7667 9.87707C29.4123 9.71138 29.9094 10.437 29.5209 10.9798C28.2582 12.7509 25.6015 15.9848 21.2535 19.0872C17.037 22.0982 13.4604 23.8408 11.3464 24.7321Z" fill="url(#paint0_radial)"/>
<path d="M16.0481 3.42683C16.3109 4.55809 17.7393 4.95232 19.1219 4.71807C20.6189 4.46668 22.5043 4.25528 22.3272 2.7355C22.1444 1.1643 19.6419 1.22715 18.7163 1.27857C17.3622 1.35856 15.8138 2.42698 16.0481 3.42683Z" fill="#FFEE58"/>
<path d="M45.4843 0.558622C52.3176 -1.28111 62.3505 1.07283 64.3616 12.9111C65.1272 17.4076 63.3389 21.3899 62.0876 23.5153C61.4706 24.5666 60.2651 25.1265 59.0709 24.8865C56.7399 24.418 52.3976 23.1096 46.5813 19.4759C43.3475 17.459 38.9482 13.5282 36.4571 11.2142C35.3315 10.1687 35.223 8.41462 36.2343 7.25479C38.2111 4.98655 41.6906 1.58133 45.4843 0.558622Z" fill="#FFC107"/>
<path d="M39.2967 11.2884C38.9367 10.9285 39.2796 10.3228 39.7766 10.4485C41.9592 10.997 45.9871 12.2254 49.5638 14.4594C53.2318 16.7562 56.9398 20.2471 58.8196 22.1154C59.1909 22.4811 58.8253 23.0981 58.3225 22.9496C56.0257 22.2811 51.8034 20.7956 47.6269 17.9789C43.3818 15.1164 40.6793 12.6653 39.2967 11.2884Z" fill="url(#paint1_radial)"/>
<path d="M45.1071 5.19806C42.8503 5.90652 42.2161 4.31247 43.4216 3.10122C44.2901 2.22706 47.9524 0.667285 51.1291 1.33005C53.2259 1.76998 53.883 4.7924 50.9291 4.75241C48.918 4.72384 47.8724 4.32961 45.1071 5.19806Z" fill="#FFEE58"/>
<path d="M60.2079 67.0233C53.0946 62.5497 48.3296 53.8367 47.4611 43.7124C46.6784 34.5652 48.8952 25.3037 50.6778 17.8647L54.3344 19.5274C52.6318 26.6463 51.2949 34.908 52.0148 43.3182C52.7575 52.0198 56.7341 59.4358 62.6418 63.1496L60.2079 67.0233Z" fill="#03A9F4"/>
<path d="M31.9604 65.4464L30.0749 61.2813C32.3089 60.27 33.6001 57.339 32.8345 55.0137C32.4632 53.8767 31.6633 52.7911 30.8234 51.6427C30.1378 50.7057 29.4236 49.7344 28.8408 48.6203C27.321 45.7064 26.9611 42.2212 27.8638 39.0617C28.3209 37.4676 29.0465 36.0564 29.755 34.6909C30.5549 33.1483 31.3033 31.697 31.4976 30.2344C31.6747 28.8803 31.3547 27.4462 30.612 26.2978C29.9378 25.2637 28.898 24.3724 27.7953 23.4354C26.9611 22.7212 26.0927 21.9842 25.2985 21.1157C23.4188 19.0589 22.6874 16.6078 22.6989 13.8711L25.8813 12.6655C25.8813 12.6655 26.4583 15.7736 27.2353 17.0135C28.0524 18.3104 29.2693 19.1903 30.4235 20.173C31.7261 21.2871 33.4116 22.2184 34.4457 23.8182C35.7712 25.8636 36.3483 28.4232 36.0284 30.8457C35.7313 33.0968 34.7543 34.9823 33.8115 36.8049C33.1831 38.0218 32.5889 39.1702 32.2575 40.3301C31.6747 42.3755 31.9032 44.6323 32.8917 46.5177C33.3145 47.3291 33.8915 48.1175 34.5086 48.9574C35.5256 50.3458 36.5768 51.7741 37.1768 53.6024C38.6794 58.1446 36.3369 63.4696 31.9604 65.4464Z" fill="#03A9F4"/>
<path d="M3.35334 68.8857L0.650879 65.2006C17.9798 52.5053 19.8252 33.9137 18.6026 24.4408L22.0535 23.3838C23.4076 33.8566 22.5734 54.8078 3.35334 68.8857Z" fill="#F48FB1"/>
<path d="M51.5804 40.3472L51.8832 40.5815C51.8489 38.7017 51.9403 36.8106 52.1175 34.9366C50.5863 33.6625 49.1579 32.2969 48.1295 30.6972C48.1009 30.6515 48.078 30.6058 48.0495 30.5601C47.741 32.6169 47.501 34.7195 47.3867 36.8391C48.7522 38.1475 50.2149 39.2902 51.5804 40.3472Z" fill="#0076C6"/>
<path d="M63.0128 52.9108L58.8648 50.9854C59.9218 48.7114 59.0362 45.9633 57.8592 44.1521C56.328 41.7981 53.917 39.9241 51.5802 38.113C49.0719 36.1704 46.2324 33.9707 44.2784 30.9254C40.6846 25.332 41.3188 18.3673 45.3696 13.0938L48.6891 14.9506C45.7753 18.7501 45.541 24.4235 48.1235 28.4515C49.649 30.834 52.0544 32.6909 54.3797 34.4964C56.8937 36.4446 59.739 38.65 61.693 41.6553C64.0469 45.2834 64.5554 49.597 63.0128 52.9108Z" fill="#F44336"/>
<path d="M2.48496 51.3339C1.62794 46.4889 5.17028 43.9807 7.07286 42.6323C7.3014 42.4723 7.58136 42.2723 7.77562 42.1181C7.75848 41.7124 7.48423 41.2039 6.97002 40.3412C6.12443 38.9186 4.97031 36.9646 5.8559 34.4792C6.62721 32.3195 8.86689 31.6053 10.3524 30.7712C11.6208 30.057 12.5406 29.1885 12.9977 27.7373C13.5291 26.0461 13.1577 21.7953 13.1577 21.7953L15.9459 20.167C15.9459 20.167 16.8257 24.2293 16.8257 26.2975C16.8257 32.1595 13.5748 33.6565 12.2035 34.4278C11.2551 34.9591 10.3581 35.4619 10.1638 36.0104C10.021 36.4103 10.221 36.8617 10.9066 38.0158C11.7293 39.3985 12.8492 41.3011 12.1178 43.7293C11.7636 44.912 10.7695 45.6204 9.71819 46.3632C7.85561 47.683 6.65578 48.6886 6.98716 50.5397L2.48496 51.3339Z" fill="#F44336"/>
<path d="M40.228 45.4322C38.194 44.9465 36.8056 43.7353 35.5601 42.7068L38.4739 39.1816C38.4739 39.1816 39.5081 40.7186 41.7763 41.427L40.228 45.4322Z" fill="#F44336"/>
<path d="M36.5598 19.71L33.1831 17.7274L35.6285 13.8594L39.0108 15.8419L36.5598 19.71Z" fill="#F44336"/>
<path d="M45.3241 63.3153L40.7705 60.4871L44.2843 56.5791L47.7981 59.9158L45.3241 63.3153Z" fill="#F44336"/>
<path d="M59.7432 32.8093L62.4228 29.1064L66.3993 31.9837L63.7192 35.6866L59.7432 32.8093Z" fill="#FB8C00"/>
<path d="M27.5674 31.034L23.5337 28.2458L25.6305 25.4634L29.6585 28.2515L27.5674 31.034Z" fill="#F44336"/>
<path d="M32.4463 35.9075C32.4463 35.9075 33.2233 35.879 34.1889 36.0675C34.8859 34.6963 35.5487 33.2679 35.8915 31.6624C34.7031 31.3939 33.749 31.5253 33.749 31.5253L32.4463 35.9075Z" fill="#0076C6"/>
<path d="M37.8683 36.4447C36.2743 35.0849 33.6118 35.182 33.6118 35.182L34.9088 30.7998C34.9088 30.7998 37.8569 30.3884 39.8452 32.4624L37.8683 36.4447Z" fill="#FB8C00"/>
<path d="M0 54.5993L4.14568 54.3462L4.42393 58.9084L0.278245 59.1615L0 54.5993Z" fill="#FB8C00"/>
<path d="M22.0133 53.8024L19.3794 50.0658C20.5449 49.2431 21.6134 48.2661 22.5389 47.1748L26.0241 50.1344C24.8454 51.5196 23.498 52.7518 22.0133 53.8024Z" fill="#FB8C00"/>
<path d="M22.0474 64.3609C20.6762 63.2297 19.225 62.1784 17.728 61.23L20.1734 57.3677C21.8303 58.4132 23.4358 59.5788 24.9555 60.83L22.0474 64.3609Z" fill="#F44336"/>
<path d="M47.541 44.1922C47.701 46.0834 47.9238 47.4432 48.3466 49.2144L51.3576 46.7976L48.4266 43.1353L47.541 44.1922Z" fill="#0076C6"/>
<path d="M42.6958 47.1085L47.3008 43.417L50.1599 46.9828L45.5548 50.6748L42.6958 47.1085Z" fill="#FFC107"/>
<path d="M41.1247 70C40.3248 68.5317 39.4278 67.0976 38.4565 65.7378L42.176 63.0811C43.2597 64.5971 44.2481 66.1789 45.1356 67.8175L41.1247 70Z" fill="#FB8C00"/>
<defs>
<radialGradient id="paint0_radial" cx="0" cy="0" r="1" gradientUnits="userSpaceOnUse" gradientTransform="translate(20.0091 17.3251) scale(8.62846)">
<stop offset="0.376" stop-color="#AF5700"/>
<stop offset="1" stop-color="#8F4700"/>
</radialGradient>
<radialGradient id="paint1_radial" cx="0" cy="0" r="1" gradientUnits="userSpaceOnUse" gradientTransform="translate(49.0558 16.699) scale(12.1262)">
<stop offset="0.376" stop-color="#AF5700"/>
<stop offset="1" stop-color="#8F4700"/>
</radialGradient>
</defs>
</svg>
