<svg width="100" height="96" viewBox="0 0 100 96" fill="none" xmlns="http://www.w3.org/2000/svg">
<circle cx="50" cy="45" r="45" fill="#0797CE"/>
<path d="M93.8877 55.902C93.8877 55.902 90.0392 63.4481 94.3405 71.8996H5.37241L4.91965 54.7701L93.8877 55.902Z" fill="#E7E6E6"/>
<path d="M93.7368 56.8075H4.91965V57.4867H93.7368V56.8075Z" fill="#D0D1D1"/>
<path d="M93.7368 58.1658H4.91965V58.845H93.7368V58.1658Z" fill="#D0D1D1"/>
<path d="M93.7368 60.2787H4.91965V60.9579H93.7368V60.2787Z" fill="#D0D1D1"/>
<path d="M93.7368 62.3916H4.91965V63.0708H93.7368V62.3916Z" fill="#D0D1D1"/>
<path d="M93.7368 63.7499H4.91965V64.4291H93.7368V63.7499Z" fill="#D0D1D1"/>
<path d="M93.7368 65.1837H4.91965V65.8628H93.7368V65.1837Z" fill="#D0D1D1"/>
<path d="M93.7368 67.2211H4.91965V67.9002H93.7368V67.2211Z" fill="#D0D1D1"/>
<path d="M93.7368 69.334H4.91965V70.0131H93.7368V69.334Z" fill="#D0D1D1"/>
<path d="M6.12701 61.8634C6.12701 61.1842 6.12701 60.4296 6.12701 59.5996C6.12701 55.6002 9.37181 55.902 9.37181 55.902H95.6988V51.2989H8.54175C6.73069 51.2989 5.44786 51.8271 4.54233 52.5817C4.46687 52.6572 4.39141 52.7327 4.31595 52.8081C4.24049 52.8081 4.16503 52.8836 4.16503 52.8836C2.5049 54.6192 -3.90926 62.1652 3.48588 72.8052C4.31595 74.1635 5.7497 75.3708 8.54175 75.3708H95.6988V70.7677H9.37181C9.37181 70.7677 6.12701 71.0696 6.12701 67.0702C6.12701 66.2401 6.12701 65.4855 6.12701 64.8064C6.12701 64.8064 6.12701 63.6744 6.12701 61.8634Z" fill="#EF0F44"/>
<path d="M100 75.4463H3.10858V95.7452H100V75.4463Z" fill="#F49AB8"/>
<path d="M33.8965 80.3512H8.99448V91.5194H33.8965V80.3512Z" fill="#EF6C9E"/>
<path opacity="0.4" d="M100 85.558H3.10858V95.7452H100V85.558Z" fill="white"/>
<path d="M84.0024 31H19.1062V51.2989H84.0024V31Z" fill="#83E2BE"/>
<path d="M77.8146 31H76.1544V51.2989H77.8146V31Z" fill="#22AF7C"/>
<path d="M70.5703 31H68.9102V51.2989H70.5703V31Z" fill="#22AF7C"/>
<path d="M36.6885 34.8485H23.8602V47.6768H36.6885V34.8485Z" fill="#22AF7C"/>
<path opacity="0.4" d="M84.0024 41.1872H19.1062V51.3744H84.0024V41.1872Z" fill="#FFFEFD"/>
<path d="M47 26C47 22.6863 49.6863 20 53 20H94C97.3137 20 100 22.6863 100 26V35C100 38.3137 97.3137 41 94 41H49C47.8954 41 47 40.1046 47 39V26Z" fill="#FF335F"/>
<path d="M54.5995 34.3326V31.9242H54V31.2026H54.5995V30.5005H54V29.779H54.5995V27.3705H56.2222L57.0284 29.779H57.9689V27.3705H59.1162V29.779H59.7054V30.5005H59.1162V31.2026H59.7054V31.9242H59.1162V34.3326H57.4832L56.6563 31.9242H55.7468V34.3326H54.5995ZM55.7054 29.779H55.9948L55.6951 28.8429H55.6537L55.7054 29.779ZM55.7468 31.2026H56.4289L56.2015 30.5005H55.7261L55.7468 31.2026ZM57.5142 31.2026H57.9896L57.9689 30.5005H57.2765L57.5142 31.2026ZM58 32.8115H58.0516L58.0103 31.9242H57.7312L58 32.8115Z" fill="white"/>
<path d="M63.0156 34.5179C64.783 34.5179 65.8682 33.533 65.8682 32.2362V32.1192C65.8682 30.9198 64.9484 30.091 63.46 29.9545L65.5582 28.6966V27.2145H60.473V28.5796H63.5014L63.5944 28.7454L61.3102 30.1495L62.075 31.3684C62.2921 31.2026 62.6021 31.0661 63.0156 31.0661C63.7804 31.0661 64.2249 31.5244 64.2249 32.1387C64.2249 32.7627 63.7804 33.1918 63.0156 33.1918C62.2507 33.1918 61.7959 32.792 61.7959 32.1874H60.1629C60.1629 33.5135 61.2481 34.5179 63.0156 34.5179Z" fill="white"/>
<path d="M67.6857 36L68.9053 33.0358L67.4996 32.5482L66.4144 35.532L67.6857 36Z" fill="white"/>
<path d="M72.5377 34.5179C74.4291 34.5179 75.473 33.338 75.473 32.0314V31.9047C75.473 30.598 74.4808 29.5547 72.8477 29.5547C72.1966 29.5547 71.7418 29.7205 71.3904 29.974L71.5248 28.5796H74.8219V27.2145H70.2431L69.8607 31.2319H71.4524C71.6488 30.9296 72.0726 30.7151 72.5687 30.7151C73.3749 30.7151 73.84 31.2611 73.84 31.9632C73.84 32.675 73.3645 33.1918 72.548 33.1918C71.8038 33.1918 71.2767 32.753 71.2767 32.0802H69.6436C69.6436 33.4258 70.7392 34.5179 72.5377 34.5179Z" fill="white"/>
<path d="M79.7681 34.5179C82.1557 34.5179 83.1169 32.909 83.1169 31.0466V30.4908C83.1169 28.5504 82.0523 27 79.7681 27C77.4632 27 76.409 28.5504 76.409 30.4908V31.0466C76.409 32.909 77.3599 34.5179 79.7681 34.5179ZM79.7681 33.0455C78.6415 33.0455 78.1041 32.3337 78.1041 30.7638C78.1041 29.1452 78.6622 28.4724 79.7681 28.4724C80.8637 28.4724 81.4219 29.1452 81.4219 30.7833C81.4219 32.3337 80.8844 33.0455 79.7681 33.0455Z" fill="white"/>
<path d="M87.6512 34.5179C90.0388 34.5179 91 32.909 91 31.0466V30.4908C91 28.5504 89.9354 27 87.6512 27C85.3463 27 84.2921 28.5504 84.2921 30.4908V31.0466C84.2921 32.909 85.243 34.5179 87.6512 34.5179ZM87.6512 33.0455C86.5246 33.0455 85.9871 32.3337 85.9871 30.7638C85.9871 29.1452 86.5453 28.4724 87.6512 28.4724C88.7468 28.4724 89.3049 29.1452 89.3049 30.7833C89.3049 32.3337 88.7675 33.0455 87.6512 33.0455Z" fill="white"/>
</svg>
