<svg width="100" height="103" viewBox="0 0 100 103" fill="none" xmlns="http://www.w3.org/2000/svg">
<circle cx="50" cy="45" r="45" fill="#F99E42"/>
<path d="M40.1043 44.936L53.8164 36.2414L98.6483 73.5255L49.5294 98.5795L9.05015 64.5892L40.1043 44.936Z" fill="#F7AA21"/>
<path d="M53.9586 47.4062L64.8142 56.1214L32.7408 74.8586L22.7899 67.0983L53.9586 47.4062Z" fill="#ED8A19"/>
<path d="M2.90502 62.5124L12.0234 14.6085L40.1043 44.936L9.05014 64.5892L2.90502 62.5124Z" fill="#F48B22"/>
<path d="M9.05018 64.5891L40.1043 44.936L9.05018 64.5891Z" fill="#F48B22"/>
<path d="M2.905 62.5124L2.22996 66.1505L2.905 62.5124Z" fill="#F48B22"/>
<path d="M9.05012 64.5891C13.4283 68.2964 43.2801 92.5668 50.0636 98.2699C47.0941 101.15 43.4131 100.339 43.4131 100.339L2.58933 66.3704C3.29957 66.6724 5.44089 67.7509 9.05012 64.5891Z" fill="#F26E25"/>
<path d="M2.77217 66.532C1.87907 66.0683 2.90499 62.5124 2.90499 62.5124L9.05011 64.5891C9.05011 64.5891 6.02567 67.8878 2.77217 66.532Z" fill="#F48B22"/>
<path d="M10.6895 56.3961C7.74236 60.762 16.3205 48.4413 18.2682 37.3936C20.2138 26.3113 16.9462 15.9306 16.9462 15.9306L37.2085 40.0309C36.2153 40.7491 35.1855 41.435 34.1213 42.1231C23.3173 49.1861 16.1074 48.3507 10.6895 56.3961Z" fill="#E8EAE9"/>
<path d="M52.5544 26.9821C52.5544 26.9821 69.7649 42.5212 79.5653 50.0442C89.3657 57.5672 97.7294 58.6083 97.7294 58.6083L93.1995 60.8584L95.4262 62.7616L95.9503 71.271L53.8163 36.2414L40.9035 44.4372L37.2085 40.0309C46.3541 33.5541 52.5544 26.9821 52.5544 26.9821Z" fill="white"/>
<path d="M12.7959 19.8519L16.9117 15.9327C16.9117 15.9327 20.1815 26.3478 18.2337 37.3956C16.2882 48.4778 7.74233 60.762 10.6551 56.3982C16.1074 48.3506 23.3173 49.1861 34.1212 42.123C35.1855 41.435 36.2131 40.7146 37.2085 40.0308L40.9035 44.4372L11.381 63.1314C10.515 63.6689 9.53503 64.0405 8.5015 64.1042C7.29572 64.1785 5.89646 63.9188 5.25188 62.4369C5.0091 61.864 4.96878 61.2094 5.10496 60.6132L12.7959 19.8519Z" fill="white"/>
</svg>
