<svg width="100" height="101" viewBox="0 0 100 101" fill="none" xmlns="http://www.w3.org/2000/svg">
<circle cx="50" cy="45" r="45" fill="#F99E42"/>
<rect y="25" width="100" height="75.6302" rx="10" fill="black"/>
<rect x="7.56302" y="30.8824" width="84.8739" height="63.8655" rx="2" fill="#FCF8F7"/>
<rect x="73.7284" y="39.728" width="15.126" height="1.68067" rx="0.840336" fill="#C4C4C4"/>
<rect x="73.7284" y="43.0894" width="11.7647" height="1.68067" rx="0.840336" fill="#C4C4C4"/>
<rect x="73.7284" y="48.1314" width="15.126" height="1.68067" rx="0.840336" fill="#C4C4C4"/>
<rect x="73.7284" y="51.4927" width="11.7647" height="1.68067" rx="0.840336" fill="#C4C4C4"/>
<rect x="73.7284" y="56.5348" width="15.126" height="1.68067" rx="0.840336" fill="#C4C4C4"/>
<rect x="73.7284" y="59.8961" width="11.7647" height="1.68067" rx="0.840336" fill="#C4C4C4"/>
<rect x="73.7284" y="64.9381" width="15.126" height="1.68067" rx="0.840336" fill="#C4C4C4"/>
<rect x="73.7284" y="68.2995" width="11.7647" height="1.68067" rx="0.840336" fill="#C4C4C4"/>
<rect x="73.7284" y="73.3415" width="15.126" height="1.68067" rx="0.840336" fill="#C4C4C4"/>
<rect x="73.7284" y="76.7028" width="11.7647" height="1.68067" rx="0.840336" fill="#C4C4C4"/>
<rect x="73.7284" y="81.7449" width="15.126" height="1.68067" rx="0.840336" fill="#C4C4C4"/>
<rect x="73.7284" y="85.1062" width="11.7647" height="1.68067" rx="0.840336" fill="#C4C4C4"/>
<path d="M53.8064 64.4793L46.8069 69.1456C45.4778 70.0317 43.6975 69.0789 43.6975 67.4815V58.1488C43.6975 56.5514 45.4778 55.5987 46.8069 56.4847L53.8064 61.1511C54.9938 61.9427 54.9938 63.6876 53.8064 64.4793Z" fill="white"/>
<rect x="58" y="21" width="32" height="15" rx="2" fill="#FF335F"/>
<path d="M63 32H67.7394V30.6192H64.7272V25H63V32Z" fill="white"/>
<path d="M68.8939 32H70.6211V25H68.8939V32Z" fill="white"/>
<path d="M74.0654 32H76.8774L79.0575 25H77.3303L75.6662 30.7247H75.2976L73.5072 25H71.7273L74.0654 32Z" fill="white"/>
<path d="M80.1658 32H85V30.6959H81.8509V29.0945H84.7578V27.7904H81.8509V26.3041H84.9263V25H80.1658V32Z" fill="white"/>
<rect x="11.7647" y="39.2857" width="58.0716" height="43.6975" rx="2" fill="#F99E42"/>
<circle cx="41" cy="55" r="6" fill="white"/>
<path d="M50 74C51.1046 74 52.0185 73.0973 51.8187 72.0109C51.4183 69.8329 50.366 67.8096 48.7782 66.2218C46.7153 64.1589 43.9174 63 41 63C38.0826 63 35.2847 64.1589 33.2218 66.2218C31.634 67.8096 30.5817 69.8329 30.1813 72.0109C29.9815 73.0973 30.8954 74 32 74L50 74Z" fill="white"/>
<rect opacity="0.2" x="14.0646" y="78.3835" width="53.4719" height="2.29987" rx="1.14993" fill="white"/>
<rect x="14.0646" y="78.3835" width="37.9478" height="2.29987" rx="1.14993" fill="white"/>
</svg>
