<svg width="100" height="101" viewBox="0 0 100 101" fill="none" xmlns="http://www.w3.org/2000/svg">
<circle cx="50" cy="45" r="45" fill="#0757CE"/>
<rect y="25" width="100" height="75.6302" rx="10" fill="black"/>
<rect x="7.56302" y="30.8823" width="84.8739" height="63.8655" rx="2" fill="#FCF8F7"/>
<rect x="73.7284" y="39.728" width="15.126" height="1.68067" rx="0.840336" fill="#C4C4C4"/>
<rect x="73.7284" y="43.0894" width="11.7647" height="1.68067" rx="0.840336" fill="#C4C4C4"/>
<rect x="73.7284" y="48.1313" width="15.126" height="1.68067" rx="0.840336" fill="#C4C4C4"/>
<rect x="73.7284" y="51.4927" width="11.7647" height="1.68067" rx="0.840336" fill="#C4C4C4"/>
<rect x="73.7284" y="56.5347" width="15.126" height="1.68067" rx="0.840336" fill="#C4C4C4"/>
<rect x="73.7284" y="59.8961" width="11.7647" height="1.68067" rx="0.840336" fill="#C4C4C4"/>
<rect x="73.7284" y="64.938" width="15.126" height="1.68067" rx="0.840336" fill="#C4C4C4"/>
<rect x="73.7284" y="68.2994" width="11.7647" height="1.68067" rx="0.840336" fill="#C4C4C4"/>
<rect x="73.7284" y="73.3414" width="15.126" height="1.68067" rx="0.840336" fill="#C4C4C4"/>
<rect x="73.7284" y="76.7028" width="11.7647" height="1.68067" rx="0.840336" fill="#C4C4C4"/>
<rect x="73.7284" y="81.7448" width="15.126" height="1.68067" rx="0.840336" fill="#C4C4C4"/>
<rect x="73.7284" y="85.1061" width="11.7647" height="1.68067" rx="0.840336" fill="#C4C4C4"/>
<path d="M53.8064 64.4792L46.8069 69.1456C45.4778 70.0316 43.6975 69.0789 43.6975 67.4815V58.1488C43.6975 56.5514 45.4778 55.5986 46.8069 56.4847L53.8064 61.151C54.9938 61.9427 54.9938 63.6876 53.8064 64.4792Z" fill="white"/>
<rect x="11.7647" y="39.2857" width="58.0716" height="43.6975" rx="2" fill="#0757CE"/>
<path d="M43.8647 61.9665L38.043 65.8476C37.3784 66.2907 36.4883 65.8143 36.4883 65.0156V57.2533C36.4883 56.4546 37.3784 55.9782 38.043 56.4212L43.8647 60.3024C44.4584 60.6982 44.4584 61.5707 43.8647 61.9665Z" fill="white"/>
<rect opacity="0.2" x="14.0646" y="78.3834" width="53.4719" height="2.29987" rx="1.14993" fill="white"/>
<rect x="14.0646" y="78.3834" width="37.9478" height="2.29987" rx="1.14993" fill="white"/>
</svg>
