<svg width="20" height="20" viewBox="0 0 20 20" fill="none" xmlns="http://www.w3.org/2000/svg">
<path d="M17.9165 3.33337H16.111V4.44449H17.7776V16.6667H2.22209V4.44449H3.88876V3.33337H2.0832C1.95334 3.33554 1.82517 3.36328 1.70602 3.41499C1.58687 3.4667 1.47908 3.54138 1.38879 3.63476C1.29851 3.72814 1.22751 3.83838 1.17984 3.95921C1.13217 4.08003 1.10878 4.20906 1.11098 4.33893V16.7723C1.10878 16.9021 1.13217 17.0312 1.17984 17.152C1.22751 17.2728 1.29851 17.3831 1.38879 17.4764C1.47908 17.5698 1.58687 17.6445 1.70602 17.6962C1.82517 17.7479 1.95334 17.7756 2.0832 17.7778H17.9165C18.0464 17.7756 18.1746 17.7479 18.2937 17.6962C18.4129 17.6445 18.5207 17.5698 18.6109 17.4764C18.7012 17.3831 18.7722 17.2728 18.8199 17.152C18.8676 17.0312 18.891 16.9021 18.8888 16.7723V4.33893C18.891 4.20906 18.8676 4.08003 18.8199 3.95921C18.7722 3.83838 18.7012 3.72814 18.6109 3.63476C18.5207 3.54138 18.4129 3.4667 18.2937 3.41499C18.1746 3.36328 18.0464 3.33554 17.9165 3.33337Z" fill="#545454"/>
<path d="M4.44434 7.77783H5.55545V8.88894H4.44434V7.77783Z" fill="#545454"/>
<path d="M7.77783 7.77783H8.88894V8.88894H7.77783V7.77783Z" fill="#545454"/>
<path d="M11.1113 7.77783H12.2224V8.88894H11.1113V7.77783Z" fill="#545454"/>
<path d="M14.4443 7.77783H15.5554V8.88894H14.4443V7.77783Z" fill="#545454"/>
<path d="M4.44434 10.5555H5.55545V11.6667H4.44434V10.5555Z" fill="#545454"/>
<path d="M7.77783 10.5555H8.88894V11.6667H7.77783V10.5555Z" fill="#545454"/>
<path d="M11.1113 10.5555H12.2224V11.6667H11.1113V10.5555Z" fill="#545454"/>
<path d="M14.4443 10.5555H15.5554V11.6667H14.4443V10.5555Z" fill="#545454"/>
<path d="M4.44434 13.3334H5.55545V14.4445H4.44434V13.3334Z" fill="#545454"/>
<path d="M7.77783 13.3334H8.88894V14.4445H7.77783V13.3334Z" fill="#545454"/>
<path d="M11.1113 13.3334H12.2224V14.4445H11.1113V13.3334Z" fill="#545454"/>
<path d="M14.4443 13.3334H15.5554V14.4445H14.4443V13.3334Z" fill="#545454"/>
<path d="M5.55556 5.55553C5.7029 5.55553 5.84421 5.497 5.94839 5.39281C6.05258 5.28862 6.11111 5.14732 6.11111 4.99997V1.66664C6.11111 1.5193 6.05258 1.37799 5.94839 1.2738C5.84421 1.16962 5.7029 1.11108 5.55556 1.11108C5.40821 1.11108 5.26691 1.16962 5.16272 1.2738C5.05853 1.37799 5 1.5193 5 1.66664V4.99997C5 5.14732 5.05853 5.28862 5.16272 5.39281C5.26691 5.497 5.40821 5.55553 5.55556 5.55553Z" fill="#545454"/>
<path d="M14.4442 5.55553C14.5916 5.55553 14.7329 5.497 14.8371 5.39281C14.9413 5.28862 14.9998 5.14732 14.9998 4.99997V1.66664C14.9998 1.5193 14.9413 1.37799 14.8371 1.2738C14.7329 1.16962 14.5916 1.11108 14.4442 1.11108C14.2969 1.11108 14.1556 1.16962 14.0514 1.2738C13.9472 1.37799 13.8887 1.5193 13.8887 1.66664V4.99997C13.8887 5.14732 13.9472 5.28862 14.0514 5.39281C14.1556 5.497 14.2969 5.55553 14.4442 5.55553Z" fill="#545454"/>
<path d="M7.22217 3.33337H12.7777V4.44449H7.22217V3.33337Z" fill="#545454"/>
</svg>
