<svg width="40" height="40" viewBox="0 0 40 40" fill="none" xmlns="http://www.w3.org/2000/svg">
<path fill-rule="evenodd" clip-rule="evenodd" d="M25.226 10H15.3163C12.5341 10 10.271 12.2634 10.271 15.0453V24.955C10.271 27.7372 12.5341 30 15.3163 30H25.226C28.0082 30 30.271 27.7372 30.271 24.955V15.0453C30.271 12.2634 28.0082 10 25.226 10ZM25.5876 15.9143C24.9154 15.9143 24.3684 15.3677 24.3684 14.6954C24.3684 14.0236 24.9154 13.4769 25.5876 13.4769C26.2598 13.4769 26.8064 14.0236 26.8064 14.6954C26.8064 15.3677 26.2598 15.9143 25.5876 15.9143ZM15.1201 20C15.1201 17.1599 17.431 14.8493 20.2708 14.8493C23.1112 14.8493 25.4221 17.1602 25.4221 20C25.4221 22.8402 23.1112 25.151 20.2708 25.151C17.431 25.151 15.1201 22.8402 15.1201 20ZM17.2964 20C17.2964 21.6402 18.6315 22.975 20.2708 22.975C21.911 22.975 23.2452 21.6402 23.2452 20C23.2452 18.3604 21.911 17.0263 20.2708 17.0263C18.6315 17.0263 17.2964 18.3604 17.2964 20Z" fill="#08305F"/>
</svg>
