<svg width="40" height="40" viewBox="0 0 40 40" fill="none" xmlns="http://www.w3.org/2000/svg">
<path d="M29.6819 13.9353C29.2375 14.1324 28.7763 14.2878 28.3029 14.4004C28.8245 13.9047 29.2166 13.2848 29.4379 12.5929C29.501 12.3954 29.2865 12.2245 29.1081 12.3303C28.4496 12.7209 27.7403 13.0139 26.9999 13.2013C26.9569 13.2122 26.9126 13.2177 26.8681 13.2177C26.7332 13.2177 26.6021 13.1676 26.499 13.0767C25.7112 12.3824 24.6979 12 23.646 12C23.1908 12 22.7312 12.0709 22.28 12.2109C20.8819 12.6445 19.8031 13.7978 19.4647 15.2207C19.3377 15.7544 19.3033 16.2886 19.3624 16.8084C19.3692 16.8681 19.3409 16.9098 19.3235 16.9294C19.293 16.9636 19.2496 16.9833 19.2046 16.9833C19.1996 16.9833 19.1944 16.983 19.1893 16.9826C16.1289 16.6982 13.3691 15.2238 11.4184 12.831C11.3189 12.7089 11.1282 12.7239 11.0489 12.8599C10.6669 13.5152 10.465 14.2648 10.465 15.0275C10.465 16.1965 10.9347 17.298 11.7504 18.1011C11.4074 18.0198 11.0753 17.8917 10.7669 17.7204C10.6177 17.6375 10.4341 17.744 10.432 17.9147C10.4107 19.6512 11.4273 21.1964 12.9504 21.8922C12.9197 21.8929 12.889 21.8932 12.8583 21.8932C12.6169 21.8932 12.3725 21.8699 12.1319 21.824C11.9638 21.7919 11.8227 21.9513 11.8748 22.1142C12.3692 23.6576 13.698 24.7952 15.2883 25.0535C13.9685 25.9394 12.4316 26.4068 10.8319 26.4068L10.3332 26.4065C10.1796 26.4065 10.0496 26.5066 10.0105 26.6554C9.9719 26.802 10.0429 26.9566 10.174 27.0329C11.9765 28.0819 14.0326 28.6363 16.1207 28.6363C17.9486 28.6363 19.6584 28.2736 21.2027 27.5582C22.6184 26.9024 23.8694 25.965 24.921 24.7719C25.9007 23.6605 26.6667 22.3775 27.1978 20.9587C27.7041 19.6062 27.9717 18.163 27.9717 16.7852V16.7195C27.9717 16.4983 28.0717 16.2901 28.2463 16.1484C28.9087 15.6106 29.4856 14.9775 29.9608 14.2667C30.0862 14.079 29.8884 13.8437 29.6819 13.9353Z" fill="#08305F"/>
</svg>
