<svg width="40" height="40" viewBox="0 0 40 40" fill="none" xmlns="http://www.w3.org/2000/svg">
<g clip-path="url(#clip0)">
<path d="M20.0025 10H19.9975C14.4838 10 10 14.5337 10 20.1087C10 22.32 10.705 24.3695 11.9037 26.0337L10.6575 29.789L14.5013 28.5469C16.0825 29.6058 17.9688 30.2174 20.0025 30.2174C25.5162 30.2174 30 25.6824 30 20.1087C30 14.535 25.5162 10 20.0025 10ZM25.8212 24.2747C25.58 24.9634 24.6225 25.5345 23.8587 25.7013C23.3363 25.8138 22.6537 25.9035 20.3562 24.9407C17.4175 23.7099 15.525 20.6912 15.3775 20.4954C15.2362 20.2995 14.19 18.8969 14.19 17.4463C14.19 15.9957 14.9188 15.2894 15.2125 14.9861C15.4538 14.7372 15.8525 14.6235 16.235 14.6235C16.3587 14.6235 16.47 14.6298 16.57 14.6348C16.8637 14.6475 17.0113 14.6652 17.205 15.134C17.4462 15.7215 18.0337 17.1721 18.1038 17.3212C18.175 17.4703 18.2463 17.6725 18.1462 17.8684C18.0525 18.0705 17.97 18.1602 17.8225 18.3321C17.675 18.5039 17.535 18.6354 17.3875 18.8198C17.2525 18.9803 17.1 19.1522 17.27 19.4491C17.44 19.7397 18.0275 20.7089 18.8925 21.4873C20.0087 22.4918 20.9137 22.8128 21.2375 22.9492C21.4787 23.0503 21.7662 23.0263 21.9425 22.8368C22.1663 22.5929 22.4425 22.1886 22.7238 21.7905C22.9237 21.505 23.1763 21.4696 23.4412 21.5707C23.7113 21.6654 25.14 22.3794 25.4338 22.5272C25.7275 22.6763 25.9212 22.7471 25.9925 22.8722C26.0625 22.9973 26.0625 23.5848 25.8212 24.2747Z" fill="#08305F"/>
</g>
<defs>
<clipPath id="clip0">
<rect width="20" height="20.2174" fill="white" transform="translate(10 10)"/>
</clipPath>
</defs>
</svg>
