<svg width="13" height="12" viewBox="0 0 13 12" fill="none" xmlns="http://www.w3.org/2000/svg">
<path d="M7.16773 0.376713L8.52118 3.24436C8.6153 3.44381 8.79727 3.58201 9.00779 3.61394L12.0343 4.07383C12.5645 4.15444 12.776 4.8355 12.3925 5.22628L10.2025 7.45842C10.0503 7.61363 9.98076 7.83742 10.0168 8.0565L10.5337 11.2084C10.6243 11.7604 10.0701 12.1813 9.59603 11.9209L6.88913 10.4329C6.7009 10.3295 6.47586 10.3295 6.28763 10.4329L3.58073 11.9209C3.10664 12.1816 2.55244 11.7604 2.64305 11.2084L3.15995 8.0565C3.196 7.83742 3.12641 7.61363 2.97422 7.45842L0.784222 5.22628C0.400741 4.83523 0.612257 4.15418 1.14242 4.07383L4.16897 3.61394C4.37948 3.58201 4.56146 3.44381 4.65558 3.24436L6.00903 0.376713C6.24582 -0.125571 6.93068 -0.125571 7.16773 0.376713Z" fill="#ED8A19"/>
</svg>
