<?xml version="1.0" encoding="UTF-8" standalone="no"?>
<svg
   xmlns:dc="http://purl.org/dc/elements/1.1/"
   xmlns:cc="http://creativecommons.org/ns#"
   xmlns:rdf="http://www.w3.org/1999/02/22-rdf-syntax-ns#"
   xmlns:svg="http://www.w3.org/2000/svg"
   xmlns="http://www.w3.org/2000/svg"
   style="fill:none"
   width="15"
   height="12"
   viewBox="0 0 15 12"
   version="1.1"
   id="svg6">
  <metadata
     id="metadata12">
    <rdf:RDF>
      <cc:Work
         rdf:about="">
        <dc:format>image/svg+xml</dc:format>
        <dc:type
           rdf:resource="http://purl.org/dc/dcmitype/StillImage" />
        <dc:title></dc:title>
      </cc:Work>
    </rdf:RDF>
  </metadata>
  <defs
     id="defs10" />
  <path
     style="fill:#ed8a19;fill-opacity:1;stroke-width:0.99995989"
     d="M 7.5921982,3.6400661e-7 C 7.3617532,3.6400661e-7 7.130515,0.1258014 7.0121201,0.37692324 L 5.6586044,3.2438808 c -0.09412,0.199434 -0.2758181,0.3391366 -0.4863281,0.371064 L 2.1468857,4.0738923 c -0.530163,0.080344 -0.742856,0.7612327 -0.359375,1.1522514 l 2.1894531,2.2322428 c 0.15219,0.1551976 0.22355,0.3785457 0.1875,0.5976083 L 3.6468857,11.208086 c -0.09061,0.551955 0.46341,0.973511 0.9375,0.712832 l 2.7070312,-1.488161 c 0.18823,-0.103392 0.4133325,-0.103392 0.6015625,0 l 2.7070316,1.488161 c 0.474069,0.260379 1.028099,-0.160877 0.937499,-0.712832 L 11.019932,8.0559948 c -0.03604,-0.2190626 0.03335,-0.4424107 0.185547,-0.5976083 L 13.396885,5.2261437 C 13.780385,4.835395 13.56771,4.1544959 13.03751,4.0738923 L 10.01212,3.6149448 C 9.8016001,3.5830174 9.6199119,3.4433148 9.5257919,3.2438808 L 8.1722763,0.37692324 C 8.0537513,0.1258014 7.8226432,3.6400661e-7 7.5921982,3.6400661e-7 Z m 0,1.49206783599339 1.0292969,2.1795127 C 8.8507519,4.157361 9.3077307,4.5210804 9.8617294,4.6050997 L 12.248448,4.9663989 10.490636,6.7572708 C 10.108864,7.1465612 9.9445379,7.688578 10.031651,8.2180912 l 0.40625,2.4705048 -2.0624997,-1.1327215 c -0.4832898,-0.2654634 -1.0831164,-0.2654634 -1.5664062,0 l -2.0625,1.1327215 0.40625,-2.4705048 C 5.2408385,7.6827801 5.0705262,7.1434736 4.6918075,6.7572708 L 2.9359482,4.9663989 5.3226669,4.6050997 C 5.8766622,4.521077 6.3336328,4.1573855 6.5629013,3.6715809 Z"
     id="path840" />
</svg>
