<?xml version="1.0" encoding="UTF-8" standalone="no"?>
<svg
   xmlns:dc="http://purl.org/dc/elements/1.1/"
   xmlns:cc="http://creativecommons.org/ns#"
   xmlns:rdf="http://www.w3.org/1999/02/22-rdf-syntax-ns#"
   xmlns:svg="http://www.w3.org/2000/svg"
   xmlns="http://www.w3.org/2000/svg"
   style="fill:none"
   id="svg10"
   version="1.1"
   viewBox="0 0 15 12"
   height="12"
   width="15">
  <metadata
     id="metadata16">
    <rdf:RDF>
      <cc:Work
         rdf:about="">
        <dc:format>image/svg+xml</dc:format>
        <dc:type
           rdf:resource="http://purl.org/dc/dcmitype/StillImage" />
        <dc:title></dc:title>
      </cc:Work>
    </rdf:RDF>
  </metadata>
  <defs
     id="defs14" />
  <path
     style="fill:#ed8a19"
     id="path8"
     d="m 8.1673512,0.376713 1.35345,2.867647 c 0.09412,0.19945 0.27609,0.33765 0.4866098,0.36958 l 3.02651,0.45989 c 0.5302,0.08061 0.7417,0.76167 0.3582,1.15245 l -2.19,2.23214 c -0.1522,0.15521 -0.22174,0.379 -0.1857,0.59808 l 0.5169,3.1519 c 0.0906,0.552 -0.4636,0.9729 -0.93767,0.7125 l -2.7068998,-1.488 c -0.18823,-0.1034 -0.41327,-0.1034 -0.6015,0 l -2.7069,1.488 c -0.47409,0.2607 -1.02829,-0.1605 -0.93768,-0.7125 l 0.5169,-3.1519 c 0.03605,-0.21908 -0.03354,-0.44287 -0.18573,-0.59808 L 1.7838432,5.22628 C 1.4003622,4.83523 1.6118782,4.15418 2.1420412,4.07383 l 3.02655,-0.45989 c 0.21051,-0.03193 0.39249,-0.17013 0.48661,-0.36958 l 1.35345,-2.867647 c 0.23679,-0.502284 0.92165,-0.502284 1.1587,0 z" />
</svg>
