<svg width="19" height="19" viewBox="0 0 19 19" fill="none" xmlns="http://www.w3.org/2000/svg">
<path d="M15.3 7.5C15.3 7.5 14.9 12.8 14.6 15.1C14.5 16.2 13.8 16.8 12.7 16.8C10.6 16.8 8.6 16.8 6.5 16.8C5.5 16.8 4.8 16.1 4.7 15.1C4.4 12.8 4 7.5 4 7.5" fill="#F70606"/>
<path d="M16.4 4.90002H3" stroke="#FF2507" stroke-linecap="round" stroke-linejoin="round"/>
<path d="M13.8 4.89998C13.2 4.89998 12.6 4.49998 12.5 3.89998L12.3 2.89998C12.2 2.49998 11.8 2.09998 11.3 2.09998H8C7.5 2.09998 7.1 2.39998 7 2.89998L6.8 3.89998C6.7 4.49998 6.1 4.89998 5.5 4.89998" fill="white"/>
<path d="M13.8 4.89998C13.2 4.89998 12.6 4.49998 12.5 3.89998L12.3 2.89998C12.2 2.49998 11.8 2.09998 11.3 2.09998H8C7.5 2.09998 7.1 2.39998 7 2.89998L6.8 3.89998C6.7 4.49998 6.1 4.89998 5.5 4.89998" stroke="#F90808" stroke-linecap="round" stroke-linejoin="round"/>
</svg>
