<svg width="435" height="251" viewBox="0 0 435 251" fill="none" xmlns="http://www.w3.org/2000/svg">
<path d="M113.28 19.032C108.928 19.032 104.96 21.72 103.296 25.816L88.192 63.832L73.216 26.2C72.96 25.56 72.576 24.92 72.32 24.28C72.32 24.28 72.32 24.28 72.192 24.28C71.936 23.768 71.68 23.384 71.424 23C71.424 23 71.424 23 71.296 23C70.4 21.72 69.12 20.824 67.712 20.056C67.2 19.8 66.816 19.672 66.304 19.544C66.176 19.544 66.176 19.544 66.176 19.544C65.664 19.288 65.28 19.288 64.768 19.16H64.64C64.128 19.032 63.616 19.032 62.976 19.032C62.464 19.032 61.952 19.032 61.44 19.16H61.312C60.8 19.288 60.288 19.288 59.904 19.544H59.776C59.264 19.672 58.88 19.8 58.368 20.056C56.96 20.824 55.68 21.72 54.656 23C54.4 23.384 54.016 23.768 53.76 24.28C53.376 24.92 53.12 25.56 52.864 26.2L37.888 63.832L22.656 25.816C21.12 21.72 17.152 19.032 12.672 19.032C5.12 19.032 0 26.712 2.688 33.752L27.776 96.472C29.312 100.184 32.512 102.488 36.096 103.128H36.224C36.864 103.128 37.376 103.256 37.888 103.256C38.4 103.256 38.912 103.128 39.424 103.128C39.552 103.128 39.68 103.128 39.68 103.128C43.264 102.488 46.464 100.184 48 96.472L62.976 58.712L78.08 96.472C79.488 100.184 82.816 102.488 86.4 103.128H86.528C87.04 103.128 87.68 103.256 88.192 103.256C88.704 103.256 89.216 103.128 89.728 103.128C89.856 103.128 89.984 103.128 89.984 103.128C93.568 102.488 96.768 100.184 98.304 96.472L123.264 33.752C126.08 26.712 120.96 19.032 113.28 19.032ZM174.865 38.872C184.465 38.872 192.529 45.144 195.473 53.848H154.385C157.329 45.144 165.393 38.872 174.865 38.872ZM216.081 57.688C214.289 35.16 195.089 17.624 172.305 19.032C151.569 20.44 134.673 37.848 133.649 58.968C132.625 83.16 151.441 103 174.865 103C185.105 103 197.649 100.312 204.561 95.448C208.913 92.376 210.705 86.488 207.889 81.88C204.689 76.76 197.905 75.608 193.809 78.808C189.329 82.392 177.041 84.056 170.513 82.776C162.833 81.24 156.561 75.352 154.257 67.928H205.969C211.473 67.928 216.081 63.32 216.081 57.688ZM45.824 121.512C39.04 120.616 32 121.896 25.6 125.736C16.128 131.496 10.624 142.12 10.624 153.256V159.912H8.96C3.968 159.912 0 163.88 0 168.872C0 173.864 3.968 177.96 8.96 177.96H10.624V222.376C10.624 228.264 15.488 233 21.376 233C27.264 233 32.128 228.264 32.128 222.376V177.96H39.296C44.288 177.96 48.384 173.864 48.384 168.872C48.384 163.88 44.288 159.912 39.296 159.912H32.128V152.744C32.128 147.24 36.608 142.504 42.112 142.76C42.496 142.76 42.88 142.76 43.264 142.888C46.72 143.4 50.304 141.864 52.608 139.048C58.112 132.52 54.144 122.664 45.824 121.512ZM135.156 148.648C129.268 148.648 124.404 153.384 124.404 159.4V194.344C122.484 204.84 112.372 212.776 103.156 212.776C92.916 212.776 84.596 202.92 84.596 190.632C84.596 190.376 84.596 171.432 84.596 159.144C84.596 153.256 80.116 148.648 74.484 148.648C68.98 148.648 64.5 153.256 64.5 159.144C64.5 171.048 64.5 189.096 64.5 190.632C64.5 213.928 80.244 232.744 99.828 232.744C109.428 232.744 118.004 228.136 124.404 220.84V222.376C124.404 228.264 129.268 233 135.156 233C141.044 233 145.908 228.264 145.908 222.376V159.4C145.908 153.384 141.044 148.648 135.156 148.648ZM198.33 149.032C188.73 149.032 180.026 153.512 173.626 160.936V160.04C173.626 154.152 169.274 148.904 163.514 148.648C157.37 148.392 152.25 153.256 152.25 159.4V221.736C152.25 227.496 156.602 232.744 162.362 233C168.506 233.384 173.626 228.392 173.626 222.376V192.424C173.626 184.232 177.594 176.296 184.634 171.944C187.834 170.024 191.418 168.872 194.874 168.872C205.114 168.872 213.562 178.856 213.562 191.016C213.562 191.4 213.562 210.216 213.434 222.632C213.434 228.392 218.042 233 223.546 233C229.178 233 233.658 228.392 233.658 222.632C233.658 210.728 233.658 192.68 233.658 191.016C233.658 167.848 217.786 149.032 198.33 149.032ZM280.064 213.16C269.44 213.16 260.864 203.304 260.864 191.016C260.864 178.856 269.44 168.872 280.064 168.872C290.816 168.872 299.392 178.856 299.392 191.016C299.392 203.304 290.816 213.16 280.064 213.16ZM313.216 125.992C307.328 125.992 302.464 130.728 302.464 136.744V159.784V161.32C295.936 153.768 286.72 149.032 276.608 149.032C256.384 149.032 240 167.848 240 191.016C240 214.312 256.384 233 276.608 233C286.72 233 295.936 228.392 302.464 220.712V222.376C302.464 228.264 307.328 233 313.216 233C319.232 233 323.968 228.264 323.968 222.376V159.784V136.744C323.968 130.728 319.232 125.992 313.216 125.992Z" fill="#E5E5E5"/>
<path d="M402.152 195.016L420.84 170.184C424.424 165.448 423.4 158.664 418.664 155.208C413.928 151.624 407.144 152.52 403.688 157.384L388.712 177.224L373.736 157.384C370.152 152.52 363.368 151.624 358.632 155.208C353.896 158.664 353 165.448 356.456 170.184L375.272 195.016L356.456 219.848C353 224.712 353.896 231.368 358.632 234.952C363.368 238.536 370.152 237.512 373.736 232.776L388.712 212.936L403.688 232.776C407.144 237.512 413.928 238.536 418.664 234.952C423.4 231.368 424.424 224.712 420.84 219.848L402.152 195.016Z" fill="#E5E5E5"/>
<path d="M361.537 147.776C361.537 147.776 366.455 185 388.601 185C410.747 185 414.651 147.776 414.651 147.776" stroke="#C5B843" stroke-width="25"/>
<line y1="-10" x2="35.8904" y2="-10" transform="matrix(-0.942877 0.333142 -0.230114 -0.973164 374.84 125)" stroke="#C5B843" stroke-width="20"/>
<line y1="-10" x2="35.7116" y2="-10" transform="matrix(-0.958257 -0.285907 0.19581 -0.980642 435 135.21)" stroke="#C5B843" stroke-width="20"/>
</svg>
