<svg width="235" height="48" viewBox="0 0 235 48" fill="none" xmlns="http://www.w3.org/2000/svg">
<path d="M206.137 21.0291C211.367 15.6853 216.05 15.7539 219.763 21.2531C220.372 20.5765 220.936 19.8817 221.596 19.2509C224.502 16.4807 230.01 16.5081 232.636 19.3149C233.942 20.7417 234.65 22.6129 234.616 24.5443C234.68 29.9521 234.648 35.3598 234.667 40.7676C234.667 41.3116 234.561 41.6178 233.924 41.6178C233.049 41.6178 232.178 41.6681 231.298 41.6544C230.226 41.6544 230.065 41.1973 230.074 40.283C230.116 36.0592 230.107 31.8308 230.074 27.6025C230.068 26.7658 229.993 25.931 229.85 25.1066C229.557 23.4609 228.933 21.9982 227.1 21.5228C226.141 21.2659 225.127 21.299 224.187 21.6181C223.247 21.9372 222.423 22.5277 221.82 23.3147C220.725 24.8095 220.542 26.5557 220.523 28.3156C220.49 32.3474 220.49 36.3838 220.523 40.4247C220.523 41.275 220.349 41.6361 219.405 41.6498C218.566 41.6498 217.732 41.6498 216.898 41.6224C216.064 41.595 215.885 41.2658 215.89 40.5116C215.89 36.0958 215.89 31.68 215.89 27.2551C215.92 26.3346 215.84 25.4139 215.652 24.5123C215.322 23.141 214.831 21.8382 213.314 21.3902C212.548 21.1343 211.726 21.0888 210.936 21.2585C210.146 21.4282 209.416 21.8068 208.823 22.3547C207.164 23.8084 206.504 25.7648 206.449 27.8676C206.348 31.8628 206.394 35.8627 206.38 39.8625C206.38 41.4807 206.38 41.4807 204.827 41.6178C201.655 41.9012 201.655 41.9012 201.655 38.77C201.655 32.1783 201.655 25.5911 201.655 19.004C201.655 18.0166 201.857 17.5824 202.948 17.5458C205.61 17.4452 205.761 17.5458 206.004 20.1422C206.009 20.4394 205.894 20.7548 206.137 21.0291Z" fill="#ECEBE8"/>
<path d="M123.693 42.0293C121.595 42.101 119.502 41.7912 117.515 41.115C116.782 40.8865 116.557 40.5208 116.736 39.7711C116.975 38.7745 117.194 37.778 117.543 36.8044C117.822 35.9998 118.184 35.7621 119.06 36.0867C121.054 36.8809 123.226 37.1272 125.348 36.7998C125.761 36.7337 126.167 36.6249 126.558 36.4752C127.502 36.0958 128.221 35.4833 128.244 34.3862C128.267 33.2891 127.566 32.64 126.594 32.3017C125.513 31.9314 124.408 31.6297 123.313 31.296C122.877 31.1589 122.433 31.04 122.002 30.8892C118.711 29.7738 117.199 27.8631 117.139 24.7638C117.075 21.4771 118.776 18.9537 121.869 17.8018C124.866 16.6864 127.933 16.8144 130.994 17.4727C132.002 17.6921 133.565 17.6052 133.817 18.5698C134.175 19.9411 133.418 21.3811 132.813 22.6839C132.543 23.2735 132.089 22.9033 131.727 22.7844C129.83 22.1627 127.919 21.7056 125.898 22.0805C124.894 22.2633 124.064 22.6107 123.918 23.7901C123.776 25.0426 124.601 25.5683 125.595 25.8974C127.007 26.3546 128.446 26.7431 129.853 27.2185C132.314 28.0459 134.133 29.5041 134.651 32.2149C134.986 33.7711 134.821 35.393 134.179 36.8503C133.538 38.3077 132.452 39.5264 131.076 40.3333C128.85 41.6445 126.271 42.2368 123.693 42.0293Z" fill="#ECEBE8"/>
<path d="M82.9226 21.8198C82.9226 17.4817 82.9226 13.1345 82.9226 8.79643C82.9226 7.88219 83.1793 7.53021 84.1371 7.46164C85.5441 7.36793 86.9557 7.36793 88.3627 7.46164C89.3022 7.51649 89.5863 7.84105 89.5817 8.76901C89.5497 16.1561 89.5817 23.5478 89.5817 30.9348C89.5817 31.8125 89.5817 32.6902 89.6551 33.5633C89.8338 35.8489 90.8421 36.7631 93.1015 36.4066C94.1648 36.2466 94.4764 36.6123 94.5681 37.5174C94.6597 38.5002 94.7697 39.483 94.8201 40.4658C94.843 40.5884 94.8404 40.7144 94.8126 40.8359C94.7849 40.9575 94.7324 41.0721 94.6586 41.1728C94.5848 41.2734 94.4911 41.3579 94.3833 41.421C94.2755 41.4842 94.1559 41.5247 94.0319 41.5401C92.0199 41.8463 90.0034 41.9972 88.0189 41.4166C84.875 40.5024 83.028 38.1162 82.9776 34.7244C82.918 30.4229 82.9776 26.1168 82.9776 21.8107L82.9226 21.8198Z" fill="#ECEBE8"/>
<path d="M66.5062 24.6861C66.5062 29.9018 66.4695 35.1176 66.5337 40.3288C66.5337 41.3482 66.1945 41.7001 65.2779 41.7276C63.7936 41.8235 62.3039 41.8006 60.8232 41.659C60.0625 41.563 59.8562 41.2019 59.8837 40.5528C59.8837 40.2831 59.8837 40.0179 59.8837 39.7528V9.49591C59.8837 7.62628 59.8837 7.66742 61.7169 7.43886C62.7826 7.314 63.8593 7.314 64.9251 7.43886C66.5429 7.62171 66.5474 7.60343 66.5474 9.26735L66.5062 24.6861Z" fill="#ECEBE8"/>
<path d="M76.9967 17.2625C77.8354 17.3036 78.6741 17.3219 79.5082 17.3859C80.2644 17.4407 80.5852 17.6693 80.104 18.5058C78.3716 21.5731 76.6713 24.6861 74.9115 27.7534C74.7294 28.0109 74.6316 28.3183 74.6316 28.6334C74.6316 28.9484 74.7294 29.2558 74.9115 29.5133C77.038 33.2069 79.1003 36.937 81.1994 40.6442C81.5293 41.2248 81.6577 41.5585 80.7411 41.6316C78.887 41.8378 77.0151 41.827 75.1635 41.5996C74.9401 41.585 74.7247 41.5107 74.54 41.3844C74.3554 41.2581 74.2082 41.0845 74.114 40.8819C72.0425 37.161 69.9557 33.4461 67.8536 29.7373C67.6967 29.5026 67.6107 29.228 67.6058 28.9459C67.6009 28.6639 67.6774 28.3864 67.8261 28.1465C69.5218 25.0015 71.2267 21.8565 72.817 18.6521C72.9939 18.2427 73.2952 17.8989 73.6783 17.6693C74.0615 17.4397 74.5072 17.3358 74.9527 17.3722C75.6402 17.3722 76.3276 17.3722 77.0105 17.3722L76.9967 17.2625Z" fill="#ECEBE8"/>
<path d="M142.186 21.3169C143.661 19.5205 145.087 17.9982 147.296 17.7743C150.834 17.4086 150.6 17.2531 150.481 20.7684C150.481 21.4815 150.27 21.8426 149.331 21.8106C145.059 21.6552 142.603 24.0414 142.511 28.4298C142.433 32.3473 142.461 36.2648 142.511 40.1824C142.511 41.1377 142.387 41.6863 141.237 41.636C140.527 41.604 139.798 41.636 139.078 41.636C138.011 41.6634 137.749 41.2566 137.759 40.2326C137.798 33.1564 137.798 26.0802 137.759 19.0039C137.759 17.8748 138.157 17.5914 139.175 17.5548C141.746 17.468 141.892 17.5548 142.099 20.1604C142.108 20.453 142.135 20.7501 142.186 21.3169Z" fill="#ECEBE8"/>
<path d="M53.3942 6.61599C53.4017 5.73829 53.2326 4.86801 52.8968 4.05669C52.561 3.24537 52.0654 2.50951 51.4393 1.89271C50.8132 1.27591 50.0694 0.790704 49.2519 0.465839C48.4344 0.140975 47.5598 -0.0169433 46.68 0.0014388H6.7206C5.83134 -0.0167174 4.94762 0.144977 4.12273 0.476768C3.29784 0.808559 2.54887 1.30357 1.92102 1.93195C1.29316 2.56032 0.799424 3.30903 0.469586 4.13292C0.139748 4.95681 -0.0193542 5.83881 0.0018766 6.7257V41.1058C0.0018766 45.1696 2.82044 47.9992 6.87642 47.9992C13.4454 47.9992 20.0144 47.9992 26.5834 47.9992C33.3022 47.9992 40.0163 47.9992 46.7488 47.9992C47.6182 48.0126 48.4816 47.853 49.2885 47.5298C50.0954 47.2066 50.8296 46.7262 51.4483 46.1168C52.067 45.5074 52.5577 44.7811 52.8918 43.9804C53.2259 43.1796 53.3967 42.3205 53.3942 41.4532C53.4155 29.8424 53.4155 18.2299 53.3942 6.61599ZM48.857 40.9504C48.857 42.9663 48.1787 43.6429 46.1988 43.6474C45.1676 43.6474 44.1364 43.6474 43.1053 43.6474C42.459 43.6474 42.1886 43.4143 42.2253 42.7789C42.2482 41.9058 42.2253 41.0281 42.2253 40.1504C42.2253 39.5333 42.0557 39.2636 41.3866 39.2682C38.2564 39.2682 35.1216 39.2956 31.9914 39.2682C31.2535 39.2682 31.0748 39.5653 31.1115 40.2236C31.1481 40.9824 31.0611 41.7504 31.1115 42.5092C31.194 43.4234 30.8869 43.6794 29.9703 43.6703C24.2415 43.6291 18.5127 43.6703 12.7885 43.6703C10.9186 43.6703 9.04419 43.6703 7.17432 43.6703C5.23569 43.6703 4.52533 42.98 4.52533 41.0875C4.52533 29.7387 4.52533 18.3899 4.52533 7.04111C4.52533 5.01149 5.22195 4.33495 7.30722 4.33495H46.0613C48.1741 4.33495 48.857 5.02064 48.857 7.15539C48.8631 18.4128 48.8631 29.6778 48.857 40.9504Z" fill="#ECEBE8"/>
<path d="M114.545 33.193V29.1932C114.545 27.8218 114.5 26.4504 114.417 25.0791C114.197 21.2941 112.029 18.556 108.363 17.5229C105.265 16.6543 102.18 16.9377 99.0824 17.5229C95.8742 18.1263 95.5443 18.7022 96.7588 21.7421C96.8183 21.8838 96.8917 22.0209 96.9375 22.1626C97.1987 22.958 97.6158 23.1775 98.4866 22.9032C100.603 22.226 102.847 22.043 105.045 22.3684C106.828 22.6335 107.891 23.7077 107.973 25.3305C108.006 25.9979 107.863 26.2813 107.107 26.2447C105.774 26.151 104.435 26.151 103.102 26.2447C100.297 26.4916 97.6754 27.287 95.833 29.5909C92.4599 33.8055 94.7835 40.1641 100.228 41.476C104.706 42.5594 109.16 42.084 113.574 40.8955C114.307 40.6989 114.573 40.4384 114.559 39.675C114.523 37.5357 114.545 35.3643 114.545 33.193ZM105.577 36.9277C104.591 36.9873 103.603 36.8665 102.662 36.5711C102.086 36.4075 101.582 36.0568 101.229 35.5748C100.876 35.0929 100.695 34.5072 100.714 33.9107C100.673 32.6947 101.076 31.6251 102.222 31.0537C103.895 30.1988 105.677 30.2537 107.478 30.5143C107.937 30.5828 107.992 30.8708 107.992 31.2365C107.992 32.0365 107.992 32.8364 107.992 33.6364V34.4364C107.969 36.818 107.969 36.8317 105.577 36.9277Z" fill="#ECEBE8"/>
<path d="M172.965 26.5831C172.214 22.2724 170.032 18.9948 165.688 17.7515C161.343 16.5081 157.172 17.0429 153.845 20.4942C151.384 23.0495 150.825 26.2951 150.742 29.4904C150.793 32.7862 151.343 35.7666 153.355 38.2534C155.765 41.2247 159.038 42.1435 162.75 42.0292C164.942 42.0031 167.069 41.2796 168.821 39.964C170.573 38.6485 171.858 36.8097 172.489 34.7153C173.292 32.0805 173.455 29.2932 172.965 26.5831ZM167.007 35.5975C165.962 37.8237 163.9 38.4591 161.544 38.3677C160.545 38.3765 159.564 38.0963 158.72 37.5609C157.877 37.0254 157.207 36.2578 156.792 35.3507C156.069 33.8279 155.698 32.1627 155.706 30.4777C155.706 28.1144 155.765 25.7694 156.984 23.6209C159.001 20.0691 164.936 19.9137 166.865 23.5112C168.996 27.4287 168.9 31.584 167.026 35.5975H167.007Z" fill="#ECEBE8"/>
<path d="M197.187 24.6861C195.963 20.7046 193.291 18.1493 189.162 17.4224C184.9 16.6728 180.999 17.4636 178.089 20.9971C176.05 23.4793 175.523 26.4552 175.523 29.559C175.523 30.0939 175.5 30.6241 175.523 31.159C175.811 37.0604 179.262 41.0556 184.808 41.9287C190.459 42.843 195.408 40.0226 197.081 34.9119C198.195 31.5994 198.232 28.0208 197.187 24.6861ZM191.843 35.3919C190.711 37.6775 188.795 38.4272 186.38 38.3723C184.088 38.3175 182.351 37.3484 181.481 35.2548C180.726 33.5015 180.334 31.6143 180.329 29.7063C180.323 27.7983 180.704 25.9089 181.449 24.1513C182.333 21.9937 184.111 21.0063 186.421 20.9514C188.731 20.8966 190.615 21.6325 191.76 23.7673C192.746 25.5958 192.998 27.5843 192.979 29.623C193.072 31.6092 192.682 33.5883 191.843 35.3919Z" fill="#ECEBE8"/>
<path d="M16.9041 11.2284C17.3514 11.2345 17.7863 11.3764 18.1507 11.6353C24.518 15.1734 30.8243 18.8121 37.0694 22.5513C38.7147 23.5387 38.7147 24.5398 37.0694 25.5272C30.7418 29.3487 24.3332 33.0301 17.8436 36.5713C16.3358 37.3895 15.3779 36.8501 15.3458 35.1542C15.2175 27.7397 15.2175 20.3221 15.3458 12.9015C15.3688 11.6673 15.8316 11.201 16.9041 11.2284Z" fill="#ECEBE8"/>
</svg>
