<svg width="877" height="789" viewBox="0 0 877 789" fill="none" xmlns="http://www.w3.org/2000/svg">
<g filter="url(#filter0_d_320_129)">
<rect x="4" width="869" height="781" fill="#E5E5E5"/>
<path d="M334.28 244.032C329.928 244.032 325.96 246.72 324.296 250.816L309.192 288.832L294.216 251.2C293.96 250.56 293.576 249.92 293.32 249.28C293.32 249.28 293.32 249.28 293.192 249.28C292.936 248.768 292.68 248.384 292.424 248C292.424 248 292.424 248 292.296 248C291.4 246.72 290.12 245.824 288.712 245.056C288.2 244.8 287.816 244.672 287.304 244.544C287.176 244.544 287.176 244.544 287.176 244.544C286.664 244.288 286.28 244.288 285.768 244.16H285.64C285.128 244.032 284.616 244.032 283.976 244.032C283.464 244.032 282.952 244.032 282.44 244.16H282.312C281.8 244.288 281.288 244.288 280.904 244.544H280.776C280.264 244.672 279.88 244.8 279.368 245.056C277.96 245.824 276.68 246.72 275.656 248C275.4 248.384 275.016 248.768 274.76 249.28C274.376 249.92 274.12 250.56 273.864 251.2L258.888 288.832L243.656 250.816C242.12 246.72 238.152 244.032 233.672 244.032C226.12 244.032 221 251.712 223.688 258.752L248.776 321.472C250.312 325.184 253.512 327.488 257.096 328.128H257.224C257.864 328.128 258.376 328.256 258.888 328.256C259.4 328.256 259.912 328.128 260.424 328.128C260.552 328.128 260.68 328.128 260.68 328.128C264.264 327.488 267.464 325.184 269 321.472L283.976 283.712L299.08 321.472C300.488 325.184 303.816 327.488 307.4 328.128H307.528C308.04 328.128 308.68 328.256 309.192 328.256C309.704 328.256 310.216 328.128 310.728 328.128C310.856 328.128 310.984 328.128 310.984 328.128C314.568 327.488 317.768 325.184 319.304 321.472L344.264 258.752C347.08 251.712 341.96 244.032 334.28 244.032ZM395.865 263.872C405.465 263.872 413.529 270.144 416.473 278.848H375.385C378.329 270.144 386.393 263.872 395.865 263.872ZM437.081 282.688C435.289 260.16 416.089 242.624 393.305 244.032C372.569 245.44 355.673 262.848 354.649 283.968C353.625 308.16 372.441 328 395.865 328C406.105 328 418.649 325.312 425.561 320.448C429.913 317.376 431.705 311.488 428.889 306.88C425.689 301.76 418.905 300.608 414.809 303.808C410.329 307.392 398.041 309.056 391.513 307.776C383.833 306.24 377.561 300.352 375.257 292.928H426.969C432.473 292.928 437.081 288.32 437.081 282.688ZM266.824 346.512C260.04 345.616 253 346.896 246.6 350.736C237.128 356.496 231.624 367.12 231.624 378.256V384.912H229.96C224.968 384.912 221 388.88 221 393.872C221 398.864 224.968 402.96 229.96 402.96H231.624V447.376C231.624 453.264 236.488 458 242.376 458C248.264 458 253.128 453.264 253.128 447.376V402.96H260.296C265.288 402.96 269.384 398.864 269.384 393.872C269.384 388.88 265.288 384.912 260.296 384.912H253.128V377.744C253.128 372.24 257.608 367.504 263.112 367.76C263.496 367.76 263.88 367.76 264.264 367.888C267.72 368.4 271.304 366.864 273.608 364.048C279.112 357.52 275.144 347.664 266.824 346.512ZM356.156 373.648C350.268 373.648 345.404 378.384 345.404 384.4V419.344C343.484 429.84 333.372 437.776 324.156 437.776C313.916 437.776 305.596 427.92 305.596 415.632C305.596 415.376 305.596 396.432 305.596 384.144C305.596 378.256 301.116 373.648 295.484 373.648C289.98 373.648 285.5 378.256 285.5 384.144C285.5 396.048 285.5 414.096 285.5 415.632C285.5 438.928 301.244 457.744 320.828 457.744C330.428 457.744 339.004 453.136 345.404 445.84V447.376C345.404 453.264 350.268 458 356.156 458C362.044 458 366.908 453.264 366.908 447.376V384.4C366.908 378.384 362.044 373.648 356.156 373.648ZM419.33 374.032C409.73 374.032 401.026 378.512 394.626 385.936V385.04C394.626 379.152 390.274 373.904 384.514 373.648C378.37 373.392 373.25 378.256 373.25 384.4V446.736C373.25 452.496 377.602 457.744 383.362 458C389.506 458.384 394.626 453.392 394.626 447.376V417.424C394.626 409.232 398.594 401.296 405.634 396.944C408.834 395.024 412.418 393.872 415.874 393.872C426.114 393.872 434.562 403.856 434.562 416.016C434.562 416.4 434.562 435.216 434.434 447.632C434.434 453.392 439.042 458 444.546 458C450.178 458 454.658 453.392 454.658 447.632C454.658 435.728 454.658 417.68 454.658 416.016C454.658 392.848 438.786 374.032 419.33 374.032ZM501.064 438.16C490.44 438.16 481.864 428.304 481.864 416.016C481.864 403.856 490.44 393.872 501.064 393.872C511.816 393.872 520.392 403.856 520.392 416.016C520.392 428.304 511.816 438.16 501.064 438.16ZM534.216 350.992C528.328 350.992 523.464 355.728 523.464 361.744V384.784V386.32C516.936 378.768 507.72 374.032 497.608 374.032C477.384 374.032 461 392.848 461 416.016C461 439.312 477.384 458 497.608 458C507.72 458 516.936 453.392 523.464 445.712V447.376C523.464 453.264 528.328 458 534.216 458C540.232 458 544.968 453.264 544.968 447.376V384.784V361.744C544.968 355.728 540.232 350.992 534.216 350.992Z" fill="#006696"/>
<path d="M621.152 420.016L639.84 395.184C643.424 390.448 642.4 383.664 637.664 380.208C632.928 376.624 626.144 377.52 622.688 382.384L607.712 402.224L592.736 382.384C589.152 377.52 582.368 376.624 577.632 380.208C572.896 383.664 572 390.448 575.456 395.184L594.272 420.016L575.456 444.848C572 449.712 572.896 456.368 577.632 459.952C582.368 463.536 589.152 462.512 592.736 457.776L607.712 437.936L622.688 457.776C626.144 462.512 632.928 463.536 637.664 459.952C642.4 456.368 643.424 449.712 639.84 444.848L621.152 420.016Z" fill="#006696"/>
<path d="M580.537 372.776C580.537 372.776 585.455 410 607.601 410C629.747 410 633.651 372.776 633.651 372.776" stroke="#C5B843" stroke-width="25"/>
<line y1="-10" x2="35.8904" y2="-10" transform="matrix(-0.942877 0.333142 -0.230114 -0.973164 593.84 350)" stroke="#C5B843" stroke-width="20"/>
<line y1="-10" x2="35.7116" y2="-10" transform="matrix(-0.958257 -0.285907 0.19581 -0.980642 654 360.21)" stroke="#C5B843" stroke-width="20"/>
<rect x="6.5" y="2.5" width="864" height="776" stroke="#006696" stroke-width="5"/>
</g>
<defs>
<filter id="filter0_d_320_129" x="0" y="0" width="877" height="789" filterUnits="userSpaceOnUse" color-interpolation-filters="sRGB">
<feFlood flood-opacity="0" result="BackgroundImageFix"/>
<feColorMatrix in="SourceAlpha" type="matrix" values="0 0 0 0 0 0 0 0 0 0 0 0 0 0 0 0 0 0 127 0" result="hardAlpha"/>
<feOffset dy="4"/>
<feGaussianBlur stdDeviation="2"/>
<feComposite in2="hardAlpha" operator="out"/>
<feColorMatrix type="matrix" values="0 0 0 0 0 0 0 0 0 0 0 0 0 0 0 0 0 0 0.25 0"/>
<feBlend mode="normal" in2="BackgroundImageFix" result="effect1_dropShadow_320_129"/>
<feBlend mode="normal" in="SourceGraphic" in2="effect1_dropShadow_320_129" result="shape"/>
</filter>
</defs>
</svg>
