<svg width="869" height="781" viewBox="0 0 869 781" fill="none" xmlns="http://www.w3.org/2000/svg">
<rect width="869" height="781" fill="#006696"/>
<path d="M352.28 255.032C347.928 255.032 343.96 257.72 342.296 261.816L327.192 299.832L312.216 262.2C311.96 261.56 311.576 260.92 311.32 260.28C311.32 260.28 311.32 260.28 311.192 260.28C310.936 259.768 310.68 259.384 310.424 259C310.424 259 310.424 259 310.296 259C309.4 257.72 308.12 256.824 306.712 256.056C306.2 255.8 305.816 255.672 305.304 255.544C305.176 255.544 305.176 255.544 305.176 255.544C304.664 255.288 304.28 255.288 303.768 255.16H303.64C303.128 255.032 302.616 255.032 301.976 255.032C301.464 255.032 300.952 255.032 300.44 255.16H300.312C299.8 255.288 299.288 255.288 298.904 255.544H298.776C298.264 255.672 297.88 255.8 297.368 256.056C295.96 256.824 294.68 257.72 293.656 259C293.4 259.384 293.016 259.768 292.76 260.28C292.376 260.92 292.12 261.56 291.864 262.2L276.888 299.832L261.656 261.816C260.12 257.72 256.152 255.032 251.672 255.032C244.12 255.032 239 262.712 241.688 269.752L266.776 332.472C268.312 336.184 271.512 338.488 275.096 339.128H275.224C275.864 339.128 276.376 339.256 276.888 339.256C277.4 339.256 277.912 339.128 278.424 339.128C278.552 339.128 278.68 339.128 278.68 339.128C282.264 338.488 285.464 336.184 287 332.472L301.976 294.712L317.08 332.472C318.488 336.184 321.816 338.488 325.4 339.128H325.528C326.04 339.128 326.68 339.256 327.192 339.256C327.704 339.256 328.216 339.128 328.728 339.128C328.856 339.128 328.984 339.128 328.984 339.128C332.568 338.488 335.768 336.184 337.304 332.472L362.264 269.752C365.08 262.712 359.96 255.032 352.28 255.032ZM413.865 274.872C423.465 274.872 431.529 281.144 434.473 289.848H393.385C396.329 281.144 404.393 274.872 413.865 274.872ZM455.081 293.688C453.289 271.16 434.089 253.624 411.305 255.032C390.569 256.44 373.673 273.848 372.649 294.968C371.625 319.16 390.441 339 413.865 339C424.105 339 436.649 336.312 443.561 331.448C447.913 328.376 449.705 322.488 446.889 317.88C443.689 312.76 436.905 311.608 432.809 314.808C428.329 318.392 416.041 320.056 409.513 318.776C401.833 317.24 395.561 311.352 393.257 303.928H444.969C450.473 303.928 455.081 299.32 455.081 293.688ZM284.824 357.512C278.04 356.616 271 357.896 264.6 361.736C255.128 367.496 249.624 378.12 249.624 389.256V395.912H247.96C242.968 395.912 239 399.88 239 404.872C239 409.864 242.968 413.96 247.96 413.96H249.624V458.376C249.624 464.264 254.488 469 260.376 469C266.264 469 271.128 464.264 271.128 458.376V413.96H278.296C283.288 413.96 287.384 409.864 287.384 404.872C287.384 399.88 283.288 395.912 278.296 395.912H271.128V388.744C271.128 383.24 275.608 378.504 281.112 378.76C281.496 378.76 281.88 378.76 282.264 378.888C285.72 379.4 289.304 377.864 291.608 375.048C297.112 368.52 293.144 358.664 284.824 357.512ZM374.156 384.648C368.268 384.648 363.404 389.384 363.404 395.4V430.344C361.484 440.84 351.372 448.776 342.156 448.776C331.916 448.776 323.596 438.92 323.596 426.632C323.596 426.376 323.596 407.432 323.596 395.144C323.596 389.256 319.116 384.648 313.484 384.648C307.98 384.648 303.5 389.256 303.5 395.144C303.5 407.048 303.5 425.096 303.5 426.632C303.5 449.928 319.244 468.744 338.828 468.744C348.428 468.744 357.004 464.136 363.404 456.84V458.376C363.404 464.264 368.268 469 374.156 469C380.044 469 384.908 464.264 384.908 458.376V395.4C384.908 389.384 380.044 384.648 374.156 384.648ZM437.33 385.032C427.73 385.032 419.026 389.512 412.626 396.936V396.04C412.626 390.152 408.274 384.904 402.514 384.648C396.37 384.392 391.25 389.256 391.25 395.4V457.736C391.25 463.496 395.602 468.744 401.362 469C407.506 469.384 412.626 464.392 412.626 458.376V428.424C412.626 420.232 416.594 412.296 423.634 407.944C426.834 406.024 430.418 404.872 433.874 404.872C444.114 404.872 452.562 414.856 452.562 427.016C452.562 427.4 452.562 446.216 452.434 458.632C452.434 464.392 457.042 469 462.546 469C468.178 469 472.658 464.392 472.658 458.632C472.658 446.728 472.658 428.68 472.658 427.016C472.658 403.848 456.786 385.032 437.33 385.032ZM519.064 449.16C508.44 449.16 499.864 439.304 499.864 427.016C499.864 414.856 508.44 404.872 519.064 404.872C529.816 404.872 538.392 414.856 538.392 427.016C538.392 439.304 529.816 449.16 519.064 449.16ZM552.216 361.992C546.328 361.992 541.464 366.728 541.464 372.744V395.784V397.32C534.936 389.768 525.72 385.032 515.608 385.032C495.384 385.032 479 403.848 479 427.016C479 450.312 495.384 469 515.608 469C525.72 469 534.936 464.392 541.464 456.712V458.376C541.464 464.264 546.328 469 552.216 469C558.232 469 562.968 464.264 562.968 458.376V395.784V372.744C562.968 366.728 558.232 361.992 552.216 361.992Z" fill="#E5E5E5"/>
<path d="M641.152 431.016L659.84 406.184C663.424 401.448 662.4 394.664 657.664 391.208C652.928 387.624 646.144 388.52 642.688 393.384L627.712 413.224L612.736 393.384C609.152 388.52 602.368 387.624 597.632 391.208C592.896 394.664 592 401.448 595.456 406.184L614.272 431.016L595.456 455.848C592 460.712 592.896 467.368 597.632 470.952C602.368 474.536 609.152 473.512 612.736 468.776L627.712 448.936L642.688 468.776C646.144 473.512 652.928 474.536 657.664 470.952C662.4 467.368 663.424 460.712 659.84 455.848L641.152 431.016Z" fill="#E5E5E5"/>
<path d="M600.537 383.776C600.537 383.776 605.455 421 627.601 421C649.747 421 653.651 383.776 653.651 383.776" stroke="#C5B843" stroke-width="25"/>
<line y1="-10" x2="35.8904" y2="-10" transform="matrix(-0.942877 0.333142 -0.230114 -0.973164 613.84 361)" stroke="#C5B843" stroke-width="20"/>
<line y1="-10" x2="35.7116" y2="-10" transform="matrix(-0.958257 -0.285907 0.19581 -0.980642 674 371.21)" stroke="#C5B843" stroke-width="20"/>
</svg>
