<svg width="14" height="16" viewBox="0 0 14 16" fill="none" xmlns="http://www.w3.org/2000/svg">
<path d="M3.44234 5.28279C3.44234 5.2828 3.44234 5.28281 3.44234 5.28282V6.17219H10.5522V5.28282C10.5522 5.28281 10.5522 5.2828 10.5522 5.28279C10.552 4.29649 10.1506 3.40573 9.50748 2.7584C8.86466 2.11205 7.9799 1.71353 7.00004 1.71333L3.44234 5.28279ZM3.44234 5.28279C3.44253 4.29708 3.84901 3.40621 4.49228 2.75847M3.44234 5.28279L4.49228 2.75847M4.49228 2.75847C5.13531 2.11207 6.01991 1.7135 6.99999 1.71333L4.49228 2.75847ZM2.61294 6.17219H1.70587C1.23393 6.17219 0.85 6.55984 0.85 7.03247V14.2591C0.85 14.7318 1.23391 15.1194 1.70587 15.1194H12.2941C12.766 15.1194 13.1499 14.7318 13.1499 14.2591V7.0325C13.1499 6.5598 12.766 6.17222 12.294 6.17222H11.3815V5.28282C11.3814 2.85212 9.41761 0.880776 7 0.880579H6.99997C4.58262 0.880776 2.61313 2.85187 2.61294 5.28278V5.28279V6.17219ZM12.3205 14.2591V14.2601C12.3203 14.2654 12.3178 14.2721 12.3118 14.2782C12.3054 14.2847 12.2987 14.2867 12.2941 14.2867H1.70587C1.70128 14.2867 1.69457 14.2847 1.68817 14.2782C1.68176 14.2718 1.6794 14.2646 1.6794 14.2591V7.0325C1.6794 7.02701 1.68176 7.01985 1.68816 7.01341C1.69456 7.00697 1.70126 7.00497 1.70587 7.00497H12.2941C12.2988 7.00497 12.3055 7.007 12.3118 7.01338C12.3182 7.01975 12.3205 7.02688 12.3205 7.0325V14.2591Z" fill="#26B872" stroke="#26B872" stroke-width="0.3"/>
<path d="M8.38623 10.3526V10.3526C8.3862 9.58434 7.76706 8.95974 7.00093 8.95974C6.23478 8.95974 5.61562 9.58419 5.61562 10.3526C5.61562 10.9764 6.02324 11.504 6.58622 11.6813V12.8384C6.58622 13.0676 6.77118 13.2547 7.00093 13.2547C7.23067 13.2547 7.41563 13.0676 7.41563 12.8384V11.6813C7.97859 11.504 8.38623 10.9762 8.38623 10.3526ZM7.00093 10.9131C6.69537 10.9131 6.44506 10.6624 6.44506 10.3528C6.44506 10.0431 6.69539 9.79249 7.00093 9.79249C7.30649 9.79249 7.5568 10.0431 7.5568 10.3528C7.5568 10.6624 7.30646 10.9131 7.00093 10.9131Z" fill="#26B872" stroke="#26B872" stroke-width="0.3"/>
</svg>
