<svg width="24" height="24" viewBox="0 0 24 24" fill="none" xmlns="http://www.w3.org/2000/svg">
<path d="M11.25 7.49976H5.25021C4.83623 7.49976 4.50024 7.83574 4.50024 8.24973C4.50024 8.66371 4.83623 8.9997 5.25021 8.9997H11.25C11.664 8.9997 12 8.66371 12 8.24973C12 7.83574 11.664 7.49976 11.25 7.49976Z" fill="currentColor"/>
<path d="M11.25 11.9995H5.25021C4.83623 11.9995 4.50024 12.3355 4.50024 12.7495C4.50024 13.1635 4.83623 13.4995 5.25021 13.4995H11.25C11.664 13.4995 12 13.1635 12 12.7495C12 12.3355 11.664 11.9995 11.25 11.9995Z" fill="currentColor"/>
<path d="M11.25 16.4994H5.25021C4.83623 16.4994 4.50024 16.8354 4.50024 17.2494C4.50024 17.6633 4.83623 17.9993 5.25021 17.9993H11.25C11.664 17.9993 12 17.6633 12 17.2494C12 16.8354 11.664 16.4994 11.25 16.4994Z" fill="currentColor"/>
<path d="M17.2499 7.49976H15.75C15.336 7.49976 15 7.83574 15 8.24973C15 8.66371 15.336 8.9997 15.75 8.9997H17.2499C17.6639 8.9997 17.9999 8.66371 17.9999 8.24973C17.9999 7.83574 17.6639 7.49976 17.2499 7.49976Z" fill="currentColor"/>
<path d="M17.2499 11.9995H15.75C15.336 11.9995 15 12.3355 15 12.7495C15 13.1635 15.336 13.4995 15.75 13.4995H17.2499C17.6639 13.4995 17.9999 13.1635 17.9999 12.7495C17.9999 12.3355 17.6639 11.9995 17.2499 11.9995Z" fill="currentColor"/>
<path d="M17.2499 16.4994H15.75C15.336 16.4994 15 16.8354 15 17.2494C15 17.6633 15.336 17.9993 15.75 17.9993H17.2499C17.6639 17.9993 17.9999 17.6633 17.9999 17.2494C17.9999 16.8354 17.6639 16.4994 17.2499 16.4994Z" fill="currentColor"/>
<path d="M23.2496 0H0.750459C0.336475 0 0.000488281 0.335987 0.000488281 0.749971V3.74985C0.000488281 4.16384 0.336475 4.49982 0.750459 4.49982H1.50043V23.2491C1.50043 23.5161 1.64292 23.7636 1.87392 23.8986C2.10491 24.0336 2.39139 24.0336 2.62239 23.9001L7.4687 21.1297L11.583 23.8731C11.835 24.0411 12.1635 24.0411 12.4155 23.8731L16.5298 21.1297L21.3762 23.9001C21.4931 23.9661 21.6221 23.9991 21.7496 23.9991C21.8801 23.9991 22.0091 23.9661 22.1261 23.8986C22.3571 23.7636 22.4996 23.5161 22.4996 23.2491V4.49982H23.2496C23.6636 4.49982 23.9995 4.16384 23.9995 3.74985V0.749971C23.9995 0.335987 23.6636 0 23.2496 0ZM20.9997 21.9561L16.8733 19.5982C16.6258 19.4572 16.3214 19.4677 16.0859 19.6252L12 22.3476L7.91568 19.6252C7.67869 19.4677 7.3757 19.4572 7.12821 19.5982L3.00037 21.9561V4.49982H20.9997V21.9561ZM22.4996 2.99988H1.50043V1.49994H22.4996V2.99988Z" fill="currentColor"/>
</svg>
