<svg width="24" height="20" viewBox="0 0 24 20" fill="none" xmlns="http://www.w3.org/2000/svg">
<mask id="path-1-outside-1" maskUnits="userSpaceOnUse" x="0" y="0" width="24" height="20" fill="black">
<rect fill="white" width="24" height="20"/>
<path fill-rule="evenodd" clip-rule="evenodd" d="M18.3554 17.074C18.4113 17.0949 18.4681 17.1053 18.5259 17.1053C18.6207 17.1053 18.7135 17.0769 18.794 17.0219C18.9229 16.9338 18.9996 16.7879 18.9996 16.6316V1.47413C18.9996 1.31782 18.9229 1.17193 18.794 1.08383C18.6642 0.995724 18.5022 0.974882 18.3554 1.03172L6.1211 5.73722H2.89469C1.84977 5.73722 1 6.58699 1 7.63191V10.4739C1 11.5189 1.84977 12.3686 2.89469 12.3686H3.90498L4.79412 18.5926C4.82728 18.8266 5.02717 19 5.26306 19H8.10509C8.24056 19 8.36845 18.9422 8.4575 18.8418C8.5475 18.7414 8.59013 18.6078 8.57497 18.4733L7.97016 13.0797L18.3554 17.074ZM5.6742 18.0527L4.86183 12.3686H6.12134L6.97364 12.6964L7.57457 18.0527H5.6742ZM18.0523 15.942L6.68413 11.569V6.53674L18.0523 2.1638V15.942ZM1.94734 7.63191C1.94734 7.10898 2.37175 6.68457 2.89469 6.68457H5.73672V11.4213H2.89469C2.37175 11.4213 1.94734 10.9969 1.94734 10.4739V7.63191ZM20.0264 6.47329C20.1183 6.61065 20.268 6.68454 20.4205 6.68454C20.5115 6.68454 20.6024 6.65897 20.683 6.60497L23.525 4.71028C23.7429 4.56534 23.8016 4.27071 23.6567 4.05377C23.5108 3.83493 23.2162 3.77809 23.0002 3.92209L20.1581 5.81678C19.9402 5.96172 19.8815 6.25635 20.0264 6.47329ZM23.2627 15.2106C23.1717 15.2106 23.0808 15.185 23.0002 15.1311L20.1582 13.2364C19.9413 13.0914 19.8816 12.7968 20.0265 12.5799C20.1724 12.362 20.468 12.3042 20.683 12.4482L23.5251 14.3429C23.742 14.4878 23.8017 14.7824 23.6567 14.9994C23.5649 15.1367 23.4152 15.2106 23.2627 15.2106ZM20.4205 10.0002H23.2625C23.524 10.0002 23.7362 9.78805 23.7362 9.52658C23.7362 9.26512 23.524 9.05291 23.2625 9.05291H20.4205C20.159 9.05291 19.9468 9.26512 19.9468 9.52658C19.9468 9.78805 20.159 10.0002 20.4205 10.0002Z"/>
</mask>
<path fill-rule="evenodd" clip-rule="evenodd" d="M18.3554 17.074C18.4113 17.0949 18.4681 17.1053 18.5259 17.1053C18.6207 17.1053 18.7135 17.0769 18.794 17.0219C18.9229 16.9338 18.9996 16.7879 18.9996 16.6316V1.47413C18.9996 1.31782 18.9229 1.17193 18.794 1.08383C18.6642 0.995724 18.5022 0.974882 18.3554 1.03172L6.1211 5.73722H2.89469C1.84977 5.73722 1 6.58699 1 7.63191V10.4739C1 11.5189 1.84977 12.3686 2.89469 12.3686H3.90498L4.79412 18.5926C4.82728 18.8266 5.02717 19 5.26306 19H8.10509C8.24056 19 8.36845 18.9422 8.4575 18.8418C8.5475 18.7414 8.59013 18.6078 8.57497 18.4733L7.97016 13.0797L18.3554 17.074ZM5.6742 18.0527L4.86183 12.3686H6.12134L6.97364 12.6964L7.57457 18.0527H5.6742ZM18.0523 15.942L6.68413 11.569V6.53674L18.0523 2.1638V15.942ZM1.94734 7.63191C1.94734 7.10898 2.37175 6.68457 2.89469 6.68457H5.73672V11.4213H2.89469C2.37175 11.4213 1.94734 10.9969 1.94734 10.4739V7.63191ZM20.0264 6.47329C20.1183 6.61065 20.268 6.68454 20.4205 6.68454C20.5115 6.68454 20.6024 6.65897 20.683 6.60497L23.525 4.71028C23.7429 4.56534 23.8016 4.27071 23.6567 4.05377C23.5108 3.83493 23.2162 3.77809 23.0002 3.92209L20.1581 5.81678C19.9402 5.96172 19.8815 6.25635 20.0264 6.47329ZM23.2627 15.2106C23.1717 15.2106 23.0808 15.185 23.0002 15.1311L20.1582 13.2364C19.9413 13.0914 19.8816 12.7968 20.0265 12.5799C20.1724 12.362 20.468 12.3042 20.683 12.4482L23.5251 14.3429C23.742 14.4878 23.8017 14.7824 23.6567 14.9994C23.5649 15.1367 23.4152 15.2106 23.2627 15.2106ZM20.4205 10.0002H23.2625C23.524 10.0002 23.7362 9.78805 23.7362 9.52658C23.7362 9.26512 23.524 9.05291 23.2625 9.05291H20.4205C20.159 9.05291 19.9468 9.26512 19.9468 9.52658C19.9468 9.78805 20.159 10.0002 20.4205 10.0002Z" fill="currentColor"/>
<path d="M18.3554 17.074L18.2836 17.2607L18.2855 17.2614L18.3554 17.074ZM18.794 17.0219L18.9068 17.1871L18.9069 17.187L18.794 17.0219ZM18.794 1.08383L18.9069 0.918735L18.9064 0.918352L18.794 1.08383ZM18.3554 1.03172L18.4272 1.21839L18.4276 1.21824L18.3554 1.03172ZM6.1211 5.73722V5.93722H6.15824L6.1929 5.92389L6.1211 5.73722ZM3.90498 12.3686L4.10297 12.3403L4.07844 12.1686H3.90498V12.3686ZM4.79412 18.5926L4.99214 18.5646L4.99211 18.5644L4.79412 18.5926ZM8.4575 18.8418L8.30856 18.7083L8.30786 18.7091L8.4575 18.8418ZM8.57497 18.4733L8.37622 18.4956L8.37623 18.4957L8.57497 18.4733ZM7.97016 13.0797L8.04196 12.893L7.73473 12.7749L7.77141 13.102L7.97016 13.0797ZM4.86183 12.3686V12.1686H4.63121L4.66384 12.3969L4.86183 12.3686ZM5.6742 18.0527L5.47621 18.0809L5.50075 18.2527H5.6742V18.0527ZM6.12134 12.3686L6.19313 12.182L6.15847 12.1686H6.12134V12.3686ZM6.97364 12.6964L7.1724 12.6741L7.15885 12.5534L7.04544 12.5098L6.97364 12.6964ZM7.57457 18.0527V18.2527H7.79827L7.77333 18.0304L7.57457 18.0527ZM6.68413 11.569H6.48413V11.7064L6.61233 11.7557L6.68413 11.569ZM18.0523 15.942L17.9805 16.1286L18.2523 16.2332V15.942H18.0523ZM6.68413 6.53674L6.61233 6.35007L6.48413 6.39938V6.53674H6.68413ZM18.0523 2.1638H18.2523V1.87258L17.9805 1.97713L18.0523 2.1638ZM5.73672 6.68457H5.93672V6.48457H5.73672V6.68457ZM5.73672 11.4213V11.6213H5.93672V11.4213H5.73672ZM20.0264 6.47329L19.8602 6.58439L19.8602 6.58449L20.0264 6.47329ZM20.683 6.60497L20.572 6.43856L20.5716 6.43886L20.683 6.60497ZM23.525 4.71028L23.4142 4.54376L23.4141 4.54387L23.525 4.71028ZM23.6567 4.05377L23.4903 4.16471L23.4904 4.16488L23.6567 4.05377ZM23.0002 3.92209L23.1111 4.0885L23.1111 4.0885L23.0002 3.92209ZM20.1581 5.81678L20.2689 5.9833L20.2691 5.98319L20.1581 5.81678ZM23.0002 15.1311L23.1116 14.9649L23.1112 14.9646L23.0002 15.1311ZM20.1582 13.2364L20.0471 13.4027L20.0473 13.4028L20.1582 13.2364ZM20.0265 12.5799L19.8603 12.4686L19.8602 12.4687L20.0265 12.5799ZM20.683 12.4482L20.5718 12.6144L20.5721 12.6146L20.683 12.4482ZM23.5251 14.3429L23.6362 14.1766L23.636 14.1764L23.5251 14.3429ZM23.6567 14.9994L23.823 15.1106L23.823 15.1105L23.6567 14.9994ZM18.5259 16.9053C18.4928 16.9053 18.4596 16.8994 18.4253 16.8866L18.2855 17.2614C18.363 17.2903 18.4435 17.3053 18.5259 17.3053V16.9053ZM18.6813 16.8567C18.6338 16.8892 18.5802 16.9053 18.5259 16.9053V17.3053C18.6611 17.3053 18.7932 17.2646 18.9068 17.1871L18.6813 16.8567ZM18.7996 16.6316C18.7996 16.7222 18.7552 16.8062 18.6811 16.8568L18.9069 17.187C19.0905 17.0615 19.1996 16.8537 19.1996 16.6316H18.7996ZM18.7996 1.47413V16.6316H19.1996V1.47413H18.7996ZM18.6811 1.24892C18.7552 1.2996 18.7996 1.38359 18.7996 1.47413H19.1996C19.1996 1.25205 19.0905 1.04426 18.9069 0.918736L18.6811 1.24892ZM18.4276 1.21824C18.5112 1.18589 18.6044 1.19683 18.6817 1.2493L18.9064 0.918352C18.7241 0.794619 18.4933 0.763874 18.2832 0.845209L18.4276 1.21824ZM6.1929 5.92389L18.4272 1.21839L18.2836 0.845054L6.04931 5.55055L6.1929 5.92389ZM2.89469 5.93722H6.1211V5.53722H2.89469V5.93722ZM1.2 7.63191C1.2 6.69745 1.96022 5.93722 2.89469 5.93722V5.53722C1.73931 5.53722 0.8 6.47653 0.8 7.63191H1.2ZM1.2 10.4739V7.63191H0.8V10.4739H1.2ZM2.89469 12.1686C1.96022 12.1686 1.2 11.4084 1.2 10.4739H0.8C0.8 11.6293 1.73931 12.5686 2.89469 12.5686V12.1686ZM3.90498 12.1686H2.89469V12.5686H3.90498V12.1686ZM4.99211 18.5644L4.10297 12.3403L3.70699 12.3969L4.59613 18.6209L4.99211 18.5644ZM5.26306 18.8C5.12678 18.8 5.01132 18.6999 4.99214 18.5646L4.5961 18.6207C4.64323 18.9533 4.92755 19.2 5.26306 19.2V18.8ZM8.10509 18.8H5.26306V19.2H8.10509V18.8ZM8.30786 18.7091C8.25678 18.7667 8.18336 18.8 8.10509 18.8V19.2C8.29775 19.2 8.48012 19.1177 8.60714 18.9745L8.30786 18.7091ZM8.37623 18.4957C8.38502 18.5737 8.36037 18.6505 8.30856 18.7083L8.60644 18.9753C8.73462 18.8322 8.79524 18.6419 8.77371 18.4509L8.37623 18.4957ZM7.77141 13.102L8.37622 18.4956L8.77372 18.451L8.16892 13.0574L7.77141 13.102ZM18.4272 16.8874L8.04196 12.893L7.89837 13.2664L18.2836 17.2607L18.4272 16.8874ZM4.66384 12.3969L5.47621 18.0809L5.87219 18.0244L5.05982 12.3403L4.66384 12.3969ZM6.12134 12.1686H4.86183V12.5686H6.12134V12.1686ZM7.04544 12.5098L6.19313 12.182L6.04954 12.5553L6.90185 12.8831L7.04544 12.5098ZM7.77333 18.0304L7.1724 12.6741L6.77489 12.7187L7.37582 18.075L7.77333 18.0304ZM5.6742 18.2527H7.57457V17.8527H5.6742V18.2527ZM6.61233 11.7557L17.9805 16.1286L18.1241 15.7553L6.75594 11.3824L6.61233 11.7557ZM6.48413 6.53674V11.569H6.88413V6.53674H6.48413ZM17.9805 1.97713L6.61233 6.35007L6.75594 6.7234L18.1241 2.35046L17.9805 1.97713ZM18.2523 15.942V2.1638H17.8523V15.942H18.2523ZM2.89469 6.48457C2.2613 6.48457 1.74734 6.99852 1.74734 7.63191H2.14734C2.14734 7.21943 2.48221 6.88457 2.89469 6.88457V6.48457ZM5.73672 6.48457H2.89469V6.88457H5.73672V6.48457ZM5.93672 11.4213V6.68457H5.53672V11.4213H5.93672ZM2.89469 11.6213H5.73672V11.2213H2.89469V11.6213ZM1.74734 10.4739C1.74734 11.1073 2.2613 11.6213 2.89469 11.6213V11.2213C2.48221 11.2213 2.14734 10.8864 2.14734 10.4739H1.74734ZM1.74734 7.63191V10.4739H2.14734V7.63191H1.74734ZM20.4205 6.48454C20.3325 6.48454 20.2462 6.44206 20.1927 6.36208L19.8602 6.58449C19.9905 6.77925 20.2036 6.88454 20.4205 6.88454V6.48454ZM20.5716 6.43886C20.5254 6.46982 20.4735 6.48454 20.4205 6.48454V6.88454C20.5494 6.88454 20.6795 6.84811 20.7944 6.77108L20.5716 6.43886ZM23.4141 4.54387L20.572 6.43856L20.7939 6.77138L23.6359 4.87669L23.4141 4.54387ZM23.4904 4.16488C23.5738 4.28979 23.5401 4.46004 23.4142 4.54376L23.6358 4.8768C23.9457 4.67063 24.0294 4.25164 23.823 3.94266L23.4904 4.16488ZM23.1111 4.0885C23.2357 4.00541 23.406 4.03832 23.4903 4.16471L23.8231 3.94283C23.6156 3.63155 23.1966 3.55077 22.8892 3.75568L23.1111 4.0885ZM20.2691 5.98319L23.1111 4.0885L22.8892 3.75568L20.0472 5.65037L20.2691 5.98319ZM20.1927 6.36218C20.1093 6.23727 20.1431 6.06702 20.2689 5.9833L20.0474 5.65026C19.7374 5.85642 19.6537 6.27542 19.8602 6.58439L20.1927 6.36218ZM22.8888 15.2972C23.0037 15.3742 23.1338 15.4106 23.2627 15.4106V15.0106C23.2097 15.0106 23.1578 14.9959 23.1116 14.9649L22.8888 15.2972ZM20.0473 13.4028L22.8893 15.2975L23.1112 14.9646L20.2691 13.07L20.0473 13.4028ZM19.8602 12.4687C19.6535 12.7782 19.739 13.1968 20.0471 13.4027L20.2693 13.0701C20.1435 12.986 20.1097 12.8154 20.1928 12.691L19.8602 12.4687ZM20.7943 12.282C20.4872 12.0763 20.0675 12.1592 19.8603 12.4686L20.1927 12.6911C20.2774 12.5647 20.4488 12.532 20.5718 12.6144L20.7943 12.282ZM23.636 14.1764L20.794 12.2818L20.5721 12.6146L23.4141 14.5093L23.636 14.1764ZM23.823 15.1105C24.0298 14.801 23.9443 14.3824 23.6362 14.1766L23.414 14.5092C23.5397 14.5932 23.5736 14.7638 23.4905 14.8883L23.823 15.1105ZM23.2627 15.4106C23.4796 15.4106 23.6927 15.3053 23.823 15.1106L23.4905 14.8882C23.437 14.9681 23.3507 15.0106 23.2627 15.0106V15.4106ZM23.2625 9.80025H20.4205V10.2002H23.2625V9.80025ZM23.5362 9.52658C23.5362 9.67759 23.4136 9.80025 23.2625 9.80025V10.2002C23.6345 10.2002 23.9362 9.89851 23.9362 9.52658H23.5362ZM23.2625 9.25291C23.4136 9.25291 23.5362 9.37558 23.5362 9.52658H23.9362C23.9362 9.15466 23.6345 8.85291 23.2625 8.85291V9.25291ZM20.4205 9.25291H23.2625V8.85291H20.4205V9.25291ZM20.1468 9.52658C20.1468 9.37558 20.2695 9.25291 20.4205 9.25291V8.85291C20.0486 8.85291 19.7468 9.15466 19.7468 9.52658H20.1468ZM20.4205 9.80025C20.2695 9.80025 20.1468 9.67759 20.1468 9.52658H19.7468C19.7468 9.89851 20.0486 10.2002 20.4205 10.2002V9.80025Z" fill="currentColor" mask="url(#path-1-outside-1)"/>
</svg>
