<svg width="24" height="24" viewBox="0 0 24 24" fill="none" xmlns="http://www.w3.org/2000/svg">
<path d="M23.7232 12.4078C23.5404 12.5895 23.3014 12.6803 23.0625 12.6803C22.8215 12.6803 22.5807 12.588 22.3974 12.4035L21.6562 11.6574V15.0708C21.6562 15.5886 21.2365 16.0083 20.7187 16.0083C20.201 16.0083 19.7812 15.5886 19.7812 15.0708V9.77007L12.6512 2.59303C12.3014 2.29331 11.7862 2.29219 11.435 2.59046L4.21739 9.79378C4.21767 9.80283 4.21874 9.81169 4.21874 9.82083V19.7583C4.21874 20.7922 5.05987 21.6333 6.09374 21.6333H17.9062C18.9401 21.6333 19.7812 20.7922 19.7812 19.7583C19.7812 19.2405 20.201 18.8208 20.7187 18.8208C21.2365 18.8208 21.6562 19.2405 21.6562 19.7583C21.6562 21.8261 19.974 23.5083 17.9062 23.5083H6.09374C4.02599 23.5083 2.34374 21.8261 2.34374 19.7583V11.6638L1.59974 12.4063C1.23332 12.772 0.639745 12.7715 0.273932 12.405C-0.0918335 12.0385 -0.0912241 11.445 0.275245 11.0791C0.275245 11.0791 10.1581 1.21646 10.1714 1.2046C11.2421 0.251346 12.8539 0.254815 13.9206 1.21252C13.9338 1.22442 23.7276 11.082 23.7276 11.082C24.0925 11.4493 24.0906 12.0429 23.7232 12.4078ZM9.32784 15.3753C8.85224 14.7935 8.5664 14.051 8.5664 13.2427C8.5664 11.3817 10.0804 9.86771 11.9414 9.86771C13.8024 9.86771 15.3164 11.3817 15.3164 13.2427C15.3164 14.0554 15.0276 14.8018 14.5474 15.3849C15.2279 15.7104 15.8535 16.1621 16.3844 16.7236C16.74 17.0999 16.7234 17.6933 16.3472 18.0489C16.166 18.2202 15.9344 18.3052 15.7033 18.3052C15.4545 18.3052 15.2062 18.2068 15.0219 18.0118C14.2244 17.1682 13.0772 16.6646 11.9531 16.6646C10.7842 16.6646 9.66562 17.1385 8.88435 17.9649C8.52867 18.3411 7.93537 18.3578 7.55906 18.0021C7.18284 17.6464 7.1662 17.053 7.52188 16.6768C8.03732 16.1316 8.65237 15.6925 9.32784 15.3753ZM10.4414 13.2427C10.4414 14.0698 11.1143 14.7427 11.9414 14.7427C12.7685 14.7427 13.4414 14.0698 13.4414 13.2427C13.4414 12.4156 12.7685 11.7427 11.9414 11.7427C11.1143 11.7427 10.4414 12.4156 10.4414 13.2427Z" fill="currentColor"/>
</svg>
