<svg width="22" height="24" viewBox="0 0 22 24" fill="none" xmlns="http://www.w3.org/2000/svg">
<path fill-rule="evenodd" clip-rule="evenodd" d="M18.4647 1.10703L20.375 3.01739C21.0269 3.67022 21.3861 4.53761 21.3861 5.45973V16.9746C21.3861 18.3491 20.2681 19.4681 18.8927 19.4681H7.38447C6.009 19.4681 4.89103 18.3491 4.89103 16.9746V2.58939C4.89103 1.21493 6.009 0.0959473 7.38447 0.0959473H16.0233C16.933 0.0959473 17.8215 0.464808 18.4647 1.10703ZM17.7188 1.85382C17.2729 1.40692 16.6543 1.15087 16.0233 1.15087H7.38447C6.59136 1.15087 5.94595 1.79628 5.94595 2.58939V16.9746C5.94595 17.7677 6.59136 18.4132 7.38447 18.4132H18.8927C19.6858 18.4132 20.3312 17.7677 20.3312 16.9746V5.45973C20.3312 4.82006 20.0818 4.2178 19.6292 3.76418L17.7188 1.85382ZM14.0976 23.3041H2.58939C1.21392 23.3041 0.0959473 22.1852 0.0959473 20.8107V5.46644C0.0959473 4.09197 1.21392 2.973 2.58939 2.973H3.54841C3.86606 2.973 4.12382 3.23075 4.12382 3.54841C4.12382 3.86606 3.86606 4.12382 3.54841 4.12382H2.58939C1.84925 4.12382 1.24677 4.7263 1.24677 5.46644V20.8107C1.24677 21.5508 1.84925 22.1533 2.58939 22.1533H14.0976C14.8377 22.1533 15.4402 21.5508 15.4402 20.8107C15.4402 20.493 15.698 20.2353 16.0156 20.2353C16.3333 20.2353 16.591 20.493 16.591 20.8107C16.591 22.1852 15.4731 23.3041 14.0976 23.3041ZM9.30245 11.7959H16.9746C17.2922 11.7959 17.55 11.5382 17.55 11.2205C17.55 10.9029 17.2922 10.6451 16.9746 10.6451H9.30245C8.98479 10.6451 8.72704 10.9029 8.72704 11.2205C8.72704 11.5382 8.98479 11.7959 9.30245 11.7959ZM16.9746 8.05578H9.30245C8.98479 8.05578 8.72704 7.79803 8.72704 7.48038C8.72704 7.16272 8.98479 6.90497 9.30245 6.90497H16.9746C17.2922 6.90497 17.55 7.16272 17.55 7.48038C17.55 7.79803 17.2922 8.05578 16.9746 8.05578ZM9.30245 15.7279H16.9746C17.2922 15.7279 17.55 15.4702 17.55 15.1525C17.55 14.8349 17.2922 14.5771 16.9746 14.5771H9.30245C8.98479 14.5771 8.72704 14.8349 8.72704 15.1525C8.72704 15.4702 8.98479 15.7279 9.30245 15.7279Z" fill="currentColor"/>
<path fill-rule="evenodd" clip-rule="evenodd" d="M20.4429 2.94958C21.1126 3.62037 21.482 4.51212 21.482 5.45968V16.9746C21.482 18.402 20.3211 19.5639 18.8926 19.5639H7.38443C5.95596 19.5639 4.79508 18.402 4.79508 16.9746V2.58934C4.79508 1.16194 5.95596 0 7.38443 0H16.0232C16.9584 0 17.8713 0.378998 18.5324 1.03912L20.4429 2.94958ZM17.6509 1.92152C17.223 1.49268 16.6289 1.24672 16.0232 1.24672H7.38443C6.64428 1.24672 6.0418 1.8492 6.0418 2.58934V16.9746C6.0418 17.7147 6.64428 18.3172 7.38443 18.3172H18.8926C19.6328 18.3172 20.2352 17.7147 20.2352 16.9746V5.45968C20.2352 4.8455 19.996 4.26761 19.5613 3.83195M19.5613 3.83195L17.6509 1.92152L19.5613 3.83195ZM19.6291 3.76414C20.0818 4.21775 20.3312 4.82002 20.3312 5.45968V16.9746C20.3312 17.7677 19.6857 18.4131 18.8926 18.4131H7.38443C6.59132 18.4131 5.9459 17.7677 5.9459 16.9746V2.58934C5.9459 1.79624 6.59132 1.15082 7.38443 1.15082H16.0232C16.6543 1.15082 17.2728 1.40688 17.7188 1.85378L19.6291 3.76414ZM14.0975 23.4H2.58934C1.16088 23.4 0 22.2381 0 20.8107V5.46639C0 4.03899 1.16088 2.87705 2.58934 2.87705H3.54836C3.91898 2.87705 4.21967 3.17774 4.21967 3.54836C4.21967 3.91898 3.91898 4.21967 3.54836 4.21967H2.58934C1.90217 4.21967 1.34262 4.77922 1.34262 5.46639V20.8107C1.34262 21.4978 1.90217 22.0574 2.58934 22.0574H14.0975C14.7847 22.0574 15.3443 21.4978 15.3443 20.8107C15.3443 20.44 15.645 20.1393 16.0156 20.1393C16.3862 20.1393 16.6869 20.44 16.6869 20.8107C16.6869 22.2381 15.526 23.4 14.0975 23.4ZM16.9745 11.8918H9.3024C8.93178 11.8918 8.63109 11.5911 8.63109 11.2205C8.63109 10.8499 8.93178 10.5492 9.3024 10.5492H16.9745C17.3451 10.5492 17.6458 10.8499 17.6458 11.2205C17.6458 11.5911 17.3451 11.8918 16.9745 11.8918ZM16.9745 8.15164H9.3024C8.93178 8.15164 8.63109 7.85095 8.63109 7.48033C8.63109 7.10971 8.93178 6.80902 9.3024 6.80902H16.9745C17.3451 6.80902 17.6458 7.10971 17.6458 7.48033C17.6458 7.85095 17.3451 8.15164 16.9745 8.15164ZM16.9745 15.8238H9.3024C8.93178 15.8238 8.63109 15.5231 8.63109 15.1525C8.63109 14.7818 8.93178 14.4812 9.3024 14.4812H16.9745C17.3451 14.4812 17.6458 14.7818 17.6458 15.1525C17.6458 15.5231 17.3451 15.8238 16.9745 15.8238ZM20.375 3.01734L18.4646 1.10698C17.8214 0.464762 16.9329 0.0959016 16.0232 0.0959016H7.38443C6.00895 0.0959016 4.89098 1.21488 4.89098 2.58934V16.9746C4.89098 18.3491 6.00895 19.468 7.38443 19.468H18.8926C20.2681 19.468 21.3861 18.3491 21.3861 16.9746V5.45968C21.3861 4.53756 21.0268 3.67017 20.375 3.01734ZM2.58934 23.3041H14.0975C15.473 23.3041 16.591 22.1851 16.591 20.8107C16.591 20.493 16.3332 20.2352 16.0156 20.2352C15.6979 20.2352 15.4402 20.493 15.4402 20.8107C15.4402 21.5508 14.8377 22.1533 14.0975 22.1533H2.58934C1.8492 22.1533 1.24672 21.5508 1.24672 20.8107V5.46639C1.24672 4.72625 1.8492 4.12377 2.58934 4.12377H3.54836C3.86601 4.12377 4.12377 3.86601 4.12377 3.54836C4.12377 3.23071 3.86601 2.97295 3.54836 2.97295H2.58934C1.21387 2.97295 0.0959016 4.09193 0.0959016 5.46639V20.8107C0.0959016 22.1851 1.21387 23.3041 2.58934 23.3041ZM16.9745 11.7959H9.3024C8.98475 11.7959 8.72699 11.5381 8.72699 11.2205C8.72699 10.9028 8.98475 10.6451 9.3024 10.6451H16.9745C17.2922 10.6451 17.5499 10.9028 17.5499 11.2205C17.5499 11.5381 17.2922 11.7959 16.9745 11.7959ZM9.3024 8.05573H16.9745C17.2922 8.05573 17.5499 7.79798 17.5499 7.48033C17.5499 7.16268 17.2922 6.90492 16.9745 6.90492H9.3024C8.98475 6.90492 8.72699 7.16268 8.72699 7.48033C8.72699 7.79798 8.98475 8.05573 9.3024 8.05573ZM16.9745 15.7279H9.3024C8.98475 15.7279 8.72699 15.4701 8.72699 15.1525C8.72699 14.8348 8.98475 14.5771 9.3024 14.5771H16.9745C17.2922 14.5771 17.5499 14.8348 17.5499 15.1525C17.5499 15.4701 17.2922 15.7279 16.9745 15.7279Z" fill="currentColor"/>
</svg>
