<svg width="24" height="22" viewBox="0 0 24 22" fill="none" xmlns="http://www.w3.org/2000/svg">
<path fill-rule="evenodd" clip-rule="evenodd" d="M23.5455 2.80987L18.2955 0.559869C18.105 0.480369 17.8935 0.480369 17.703 0.559869L12.453 2.80987C12.1785 2.92837 12 3.19987 12 3.49987V6.49987C12 10.6264 13.5255 13.0384 17.6265 15.4009C17.742 15.4669 17.871 15.4999 18 15.4999C18.129 15.4999 18.258 15.4669 18.3735 15.4009C22.4745 13.0444 24 10.6324 24 6.49987V3.49987C24 3.19987 23.8215 2.92837 23.5455 2.80987ZM22.5 6.49987C22.5 9.96337 21.354 11.8699 18 13.8799C14.646 11.8654 13.5 9.95887 13.5 6.49987V3.99487L18 2.06587L22.5 3.99487V6.49987ZM22.5 14.7496C22.5 14.3356 22.836 13.9996 23.25 13.9996C23.664 13.9996 24 14.3356 24 14.7496V19.9996C24 20.8276 23.328 21.4996 22.5 21.4996H1.5C0.672 21.4996 0 20.8276 0 19.9996V6.49961C0 5.67161 0.672 4.99961 1.5 4.99961H9.75C10.164 4.99961 10.5 5.33561 10.5 5.74961C10.5 6.16361 10.164 6.49961 9.75 6.49961H1.5V9.49961H9.75C10.164 9.49961 10.5 9.83561 10.5 10.2496C10.5 10.6636 10.164 10.9996 9.75 10.9996H1.5V19.9996H22.5V14.7496ZM3.75 13.9996H6.75C7.164 13.9996 7.5 14.3356 7.5 14.7496C7.5 15.1636 7.164 15.4996 6.75 15.4996H3.75C3.336 15.4996 3 15.1636 3 14.7496C3 14.3356 3.336 13.9996 3.75 13.9996ZM19.6648 5.28027C19.9258 4.95777 20.3968 4.90827 20.7193 5.16327C21.0433 5.42277 21.0943 5.89377 20.8363 6.21777L17.8363 9.96777C17.6923 10.1478 17.4763 10.2498 17.2498 10.2498H17.2183C16.9783 10.2378 16.7593 10.1148 16.6258 9.91527L15.1258 7.66527C14.8963 7.32177 14.9908 6.85527 15.3343 6.62577C15.6748 6.39777 16.1413 6.48927 16.3738 6.83427L17.3068 8.22927L19.6648 5.28027Z" fill="currentColor"/>
</svg>
