<svg width="24" height="22" viewBox="0 0 24 22" fill="none" xmlns="http://www.w3.org/2000/svg">
<path fill-rule="evenodd" clip-rule="evenodd" d="M18.345 12.3005L21.6375 13.0115C23.0295 13.3145 24 14.522 24 15.95V17.75C24 18.164 23.664 18.5 23.25 18.5H18.6C18.186 18.5 17.85 18.164 17.85 17.75C17.85 17.336 18.186 17 18.6 17H22.5V15.95C22.5 15.2345 22.0155 14.6285 21.321 14.4785L17.4375 13.6385C17.091 13.5635 16.845 13.2575 16.845 12.905V11.075C16.845 10.8755 16.9245 10.685 17.0655 10.544C17.1615 10.442 17.376 10.0145 17.5035 9.758L17.5114 9.74229C17.7405 9.28546 17.9382 8.89128 18.177 8.654C18.5535 8.2895 18.945 7.859 19.053 7.373C19.1183 7.05546 19.0764 6.97278 19.0145 6.85052L19.0125 6.8465L19.0114 6.84436C18.9424 6.70937 18.84 6.50902 18.84 6.23C18.84 5.6315 18.84 4.6295 18.6615 4.0295C18.642 3.965 18.6315 3.896 18.63 3.8285C18.6166 2.97135 18.4673 2.81386 18.3594 2.69994L18.3585 2.699C18.3224 2.68028 18.1493 2.64965 18.0229 2.62728C18.0074 2.62455 17.9927 2.62195 17.979 2.6195L17.977 2.61914C17.7105 2.57273 17.4083 2.52011 17.139 2.369C16.6905 2.1275 16.254 2.012 15.7335 2C14.9055 2.0375 13.989 2.4395 13.3905 3.05C13.098 3.347 12.624 3.35 12.33 3.0605C12.033 2.771 12.03 2.2955 12.3195 2C13.1865 1.1165 14.457 0.5555 15.717 0.5C16.527 0.518 17.19 0.6935 17.859 1.0535C17.925 1.0865 18.1095 1.118 18.2325 1.139L18.234 1.13926C18.6313 1.20822 19.1254 1.294 19.467 1.6895C19.905 2.1455 20.0985 2.723 20.127 3.7025C20.34 4.5005 20.34 5.534 20.34 6.2285C20.4675 6.395 20.694 6.833 20.52 7.6835C20.322 8.576 19.725 9.242 19.227 9.7235C19.1565 9.806 18.969 10.1795 18.8445 10.4285C18.678 10.763 18.5175 11.084 18.345 11.3345V12.3005ZM10.842 15.302L14.136 16.0175C15.5055 16.316 16.5 17.549 16.5 18.95V20.75C16.5 21.164 16.164 21.5 15.75 21.5H0.75C0.336 21.5 0 21.164 0 20.75V18.95C0 17.549 0.9945 16.316 2.364 16.019L5.658 15.3035V14.33C5.487 14.081 5.325 13.766 5.1585 13.4375C5.15229 13.4255 5.14594 13.4131 5.13945 13.4005C5.01271 13.1543 4.83648 12.812 4.758 12.7235C4.227 12.2045 3.657 11.5535 3.48 10.6925C3.303 9.8375 3.5265 9.398 3.6465 9.1625L3.648 8.7965C3.63 7.8725 3.63 7.0655 3.825 6.5255C4.5105 4.6235 6.5565 3.563 8.2215 3.5C9.0465 3.521 9.7125 3.6995 10.368 4.064C10.425 4.0925 10.614 4.124 10.74 4.145L10.7448 4.14582C11.1325 4.21168 11.6144 4.29354 11.9565 4.664C12.414 5.162 12.6045 5.741 12.6285 6.7145C12.8385 7.5215 12.8385 8.621 12.8385 9.224C12.9675 9.3965 13.191 9.836 13.014 10.6925C12.837 11.552 12.267 12.203 11.7315 12.7265C11.6552 12.8131 11.4741 13.1709 11.3498 13.4167L11.3415 13.433C11.175 13.7645 11.0145 14.081 10.842 14.33V15.302ZM1.5 20H15V18.95C15 18.2495 14.502 17.633 13.818 17.4845L9.933 16.6415C9.588 16.5665 9.342 16.2605 9.342 15.908V14.0675C9.342 13.8665 9.4215 13.6745 9.5655 13.5335C9.66 13.433 9.8745 13.01 10.002 12.7565C10.236 12.293 10.4385 11.8925 10.683 11.6555C11.0745 11.2715 11.4495 10.8545 11.544 10.3895C11.6142 10.0489 11.5728 9.96717 11.5103 9.84354L11.5095 9.842L11.5064 9.83574C11.4388 9.70077 11.3385 9.50017 11.3385 9.2225C11.3385 8.7095 11.3385 7.64 11.16 7.0325C11.1405 6.9665 11.13 6.899 11.13 6.8315C11.1195 5.9705 10.9725 5.81 10.854 5.681C10.824 5.681 10.6275 5.648 10.4895 5.624L10.4767 5.6218C10.2099 5.57587 9.90921 5.52412 9.6405 5.375C9.192 5.126 8.7705 5.0135 8.2305 5C7.143 5.042 5.691 5.7695 5.235 7.034C5.11986 7.3555 5.13739 8.23454 5.1479 8.76161L5.148 8.7665L5.154 9.224C5.154 9.5053 5.05101 9.70899 4.9835 9.84251L4.983 9.8435C4.92 9.9665 4.878 10.049 4.9485 10.3895C5.043 10.8545 5.418 11.273 5.8095 11.6555C6.04845 11.8886 6.24969 12.2797 6.4831 12.7334L6.495 12.7565C6.624 13.01 6.84 13.433 6.936 13.535C7.068 13.6745 7.158 13.8755 7.158 14.0675V15.908C7.158 16.262 6.912 16.5665 6.567 16.6415L2.682 17.4845C1.998 17.633 1.5 18.2495 1.5 18.95V20Z" fill="currentColor"/>
</svg>
