<svg width="24" height="24" viewBox="0 0 24 24" fill="none" xmlns="http://www.w3.org/2000/svg">
<path fill-rule="evenodd" clip-rule="evenodd" d="M22.2081 0.0284102C23.1615 0.0804415 23.9197 0.838551 23.9716 1.79189C24.0766 3.71541 23.9745 7.47971 22.1127 11.0793C21.1636 12.9143 19.5544 14.8549 17.6978 16.4036C17.6846 16.4146 17.6713 16.4254 17.658 16.4363C17.6483 16.4442 17.6386 16.4521 17.6289 16.4602L17.3574 19.9748C17.3128 20.5533 17.0096 21.0686 16.5256 21.3886L12.8988 23.7865C12.6845 23.9282 12.4386 24.0003 12.1909 24.0003C12.0146 24.0003 11.8374 23.9638 11.67 23.8897C11.2678 23.7117 10.9874 23.3459 10.92 22.9111L10.4614 19.9499L10.4515 19.9517C10.3973 19.9616 10.343 19.9714 10.2887 19.9805C10.188 19.9973 10.0867 20.0056 9.98602 20.0056C9.49711 20.0056 9.01997 19.8109 8.66686 19.4578L4.54224 15.3331C4.11633 14.9073 3.92095 14.301 4.01953 13.7113C4.02858 13.6571 4.03842 13.6029 4.04827 13.5487L4.0501 13.5387L1.08896 13.0801C0.654189 13.0127 0.288377 12.7323 0.110346 12.3299C-0.0676387 11.9276 -0.0290606 11.4683 0.213611 11.1012L2.61145 7.47441C2.93142 6.99047 3.44672 6.68724 4.02525 6.64252L7.53994 6.37102C7.54784 6.36145 7.55568 6.35187 7.56352 6.34229C7.57446 6.32891 7.5854 6.31554 7.59652 6.30221C9.14522 4.44558 11.0858 2.83641 12.9208 1.88729C16.5202 0.025551 20.2845 -0.0766835 22.2081 0.0284102ZM12.2808 22.5092L15.75 20.2155C15.8695 20.1365 15.9444 20.0093 15.9555 19.8664L16.1323 17.5768C14.7505 18.5018 13.3 19.1923 11.8338 19.6234L12.2808 22.5092ZM5.53655 14.3388L9.66122 18.4635C9.76645 18.5687 9.91416 18.6172 10.0568 18.5935C10.6472 18.4948 11.3546 18.326 12.1444 18.0431L5.95556 11.8543C5.71969 12.5119 5.52914 13.2099 5.40652 13.9432C5.38266 14.0856 5.43131 14.2335 5.53655 14.3388ZM6.42314 7.86774L4.13358 8.0446C3.9908 8.05561 3.86353 8.13047 3.7845 8.25L1.49072 11.7193L4.37653 12.1663C4.80764 10.7 5.49811 9.24957 6.42314 7.86774ZM13.5422 17.4523C14.5585 16.9564 15.6612 16.2711 16.7971 15.3236C18.5153 13.8904 19.9975 12.108 20.8637 10.4332C22.5724 7.12969 22.6646 3.64922 22.5675 1.86854C22.5547 1.6328 22.3673 1.44535 22.1316 1.4325C20.3509 1.33557 16.8704 1.42758 13.5669 3.13632C11.8921 4.00257 10.1096 5.4848 8.67638 7.203C7.98985 8.02604 7.19705 9.13083 6.54746 10.4576L13.5422 17.4523ZM18.9259 10.046C18.2406 10.7313 17.3401 11.0739 16.44 11.074C15.5396 11.0741 14.6396 10.7314 13.9542 10.046C13.2902 9.38201 12.9245 8.49917 12.9245 7.56017C12.9245 6.62117 13.2902 5.73832 13.9542 5.07434C15.3248 3.70367 17.5552 3.70357 18.9259 5.07434C19.5899 5.73832 19.9555 6.62117 19.9555 7.56017C19.9555 8.49917 19.5899 9.38201 18.9259 10.046ZM16.4399 5.45182C15.8998 5.45182 15.3597 5.65742 14.9485 6.06865C14.5501 6.46704 14.3306 6.99678 14.3306 7.56017C14.3306 8.12356 14.55 8.65325 14.9484 9.05164C15.7709 9.87401 17.1091 9.87406 17.9315 9.05164C18.3299 8.65325 18.5492 8.12351 18.5492 7.56012C18.5492 6.99673 18.3299 6.46704 17.9315 6.06865C17.5203 5.65742 16.9801 5.45182 16.4399 5.45182Z" fill="currentColor"/>
</svg>
