<svg width="24" height="24" viewBox="0 0 24 24" fill="none" xmlns="http://www.w3.org/2000/svg">
<path fill-rule="evenodd" clip-rule="evenodd" d="M21.75 0H6.75C5.9235 0 5.25 0.6735 5.25 1.5V19.5H1.5C1.086 19.5 0.75 19.836 0.75 20.25C0.75 22.317 2.433 24 4.5 24H19.5C21.567 24 23.25 22.317 23.25 20.25V1.5C23.25 0.6735 22.5765 0 21.75 0ZM4.5 22.5C3.522 22.5 2.688 21.873 2.3775 21H15.825C15.9375 21.5535 16.173 22.0635 16.5015 22.5H4.5ZM21.75 20.25C21.75 21.4905 20.7405 22.5 19.5 22.5C18.2595 22.5 17.25 21.4905 17.25 20.25C17.25 19.836 16.914 19.5 16.5 19.5H6.75V1.5H21.75V20.25ZM19.5 6H15C14.586 6 14.25 6.336 14.25 6.75C14.25 7.164 14.586 7.5 15 7.5H19.5C19.914 7.5 20.25 7.164 20.25 6.75C20.25 6.336 19.914 6 19.5 6ZM15 12H19.5C19.914 12 20.25 12.336 20.25 12.75C20.25 13.164 19.914 13.5 19.5 13.5H15C14.586 13.5 14.25 13.164 14.25 12.75C14.25 12.336 14.586 12 15 12ZM12 4.5H9C8.586 4.5 8.25 4.836 8.25 5.25V8.25C8.25 8.664 8.586 9 9 9H12C12.414 9 12.75 8.664 12.75 8.25V5.25C12.75 4.836 12.414 4.5 12 4.5ZM11.25 7.5H9.75V6H11.25V7.5ZM9 10.5H12C12.414 10.5 12.75 10.836 12.75 11.25V14.25C12.75 14.664 12.414 15 12 15H9C8.586 15 8.25 14.664 8.25 14.25V11.25C8.25 10.836 8.586 10.5 9 10.5ZM9.75 13.5H11.25V12H9.75V13.5Z" fill="currentColor"/>
</svg>
