<svg width="24" height="24" viewBox="0 0 24 24" fill="none" xmlns="http://www.w3.org/2000/svg">
<path d="M5 16H19" stroke="currentColor" stroke-width="1.3" stroke-linecap="round" stroke-linejoin="round"/>
<path d="M10 19H14" stroke="currentColor" stroke-width="1.3" stroke-linecap="round" stroke-linejoin="round"/>
<rect x="4" y="2" width="16" height="20" rx="2" stroke="currentColor" stroke-width="1.3" stroke-linecap="round" stroke-linejoin="round"/>
<circle cx="12" cy="9" r="3.35" stroke="currentColor" stroke-width="1.3"/>
<path d="M20 4.35C19.641 4.35 19.35 4.64101 19.35 5C19.35 5.35899 19.641 5.65 20 5.65V4.35ZM20 18.35C19.641 18.35 19.35 18.641 19.35 19C19.35 19.359 19.641 19.65 20 19.65V18.35ZM20 5.65H22V4.35H20V5.65ZM22.35 6V18H23.65V6H22.35ZM22 18.35H20V19.65H22V18.35ZM22.35 18C22.35 18.1933 22.1933 18.35 22 18.35V19.65C22.9113 19.65 23.65 18.9113 23.65 18H22.35ZM22 5.65C22.1933 5.65 22.35 5.8067 22.35 6H23.65C23.65 5.08873 22.9113 4.35 22 4.35V5.65Z" fill="currentColor"/>
<path d="M3.61429 4.35C3.97327 4.35 4.26429 4.64101 4.26429 5C4.26429 5.35899 3.97327 5.65 3.61429 5.65V4.35ZM4 18.35C4.35899 18.35 4.65 18.641 4.65 19C4.65 19.359 4.35899 19.65 4 19.65V18.35ZM3.61429 5.65H2V4.35H3.61429V5.65ZM1.65 6V18H0.35V6H1.65ZM2 18.35H4V19.65H2V18.35ZM1.65 18C1.65 18.1933 1.8067 18.35 2 18.35V19.65C1.08873 19.65 0.35 18.9113 0.35 18H1.65ZM2 5.65C1.8067 5.65 1.65 5.8067 1.65 6H0.35C0.35 5.08873 1.08873 4.35 2 4.35V5.65Z" fill="currentColor"/>
</svg>
