<svg width="24" height="24" viewBox="0 0 24 24" fill="none" xmlns="http://www.w3.org/2000/svg">
<path d="M19.7269 9.69006C19.5547 9.62867 19.4163 9.49759 19.3456 9.32895L18.9377 8.35525C18.8687 8.1905 18.8705 8.0046 18.9427 7.84124L18.9867 7.7418L19.7269 9.69006ZM19.7269 9.69006L19.831 9.72719C19.8311 9.72722 19.8312 9.72726 19.8313 9.72729C21.2978 10.2508 21.9734 10.5239 22.2842 10.692C22.2922 10.6963 22.2998 10.7004 22.3069 10.7044V12.713C22.297 12.7188 22.2861 12.7251 22.2743 12.7317C21.9602 12.9089 21.282 13.2009 19.8161 13.7695L19.8139 13.7703L19.7165 13.8085C19.5532 13.8725 19.4228 13.9998 19.3547 14.1614L18.9469 15.1298C18.8753 15.2997 18.8793 15.492 18.9578 15.6589L19.0062 15.7618L19.0073 15.764C19.6647 17.1475 19.9437 17.8052 20.0416 18.1364C20.0434 18.1424 20.045 18.1481 20.0466 18.1535L18.5913 19.5767C18.5719 19.5716 18.5488 19.5653 18.5218 19.5575C18.3911 19.5195 18.2116 19.4594 17.9796 19.3743C17.5168 19.2047 16.8759 18.9473 16.0565 18.6006L16.0566 18.6006L16.0487 18.5974L15.9534 18.5585C15.7967 18.4946 15.6213 18.4944 15.4644 18.5578L14.4636 18.9624C14.2964 19.03 14.1647 19.1641 14.1002 19.3326L14.0606 19.436L14.0606 19.436L14.0588 19.4408C13.5227 20.8745 13.2444 21.5337 13.0742 21.8363C13.0695 21.8447 13.065 21.8526 13.0607 21.86H10.9922C10.9859 21.8498 10.9792 21.8386 10.9719 21.8264C10.793 21.522 10.4957 20.863 9.91902 19.4366L9.88155 19.3402C9.81662 19.1732 9.68558 19.0403 9.51941 18.9731L8.51435 18.5666C8.34686 18.4989 8.15874 18.5039 7.99511 18.5805L7.90134 18.6244C6.69047 19.1721 6.03168 19.4385 5.67144 19.567C5.56278 19.6058 5.48627 19.6302 5.43371 19.6455L3.97894 18.2222C3.98124 18.2132 3.98377 18.2037 3.98656 18.1935C4.07981 17.8538 4.34657 17.1814 4.97032 15.7661L5.01374 15.6681C5.0863 15.5042 5.08798 15.3177 5.0184 15.1525L4.60977 14.1827C4.5387 14.014 4.39981 13.8832 4.22722 13.8222L4.12616 13.7865C4.12566 13.7863 4.12517 13.7862 4.12468 13.786C2.65928 13.2608 1.98408 12.9868 1.67343 12.8182C1.66512 12.8137 1.65732 12.8094 1.65 12.8053V10.7954C1.65956 10.7898 1.66997 10.7838 1.68129 10.7774C1.99474 10.6011 2.67171 10.3107 4.13541 9.74502L4.13548 9.74499L4.23547 9.70634C4.40022 9.64265 4.53196 9.51465 4.60037 9.3518L5.00894 8.37916C5.08019 8.20953 5.07622 8.01764 4.99801 7.85111L4.95021 7.74934L4.95021 7.74933L4.94924 7.74729C4.29298 6.3625 4.0146 5.70395 3.91719 5.37232C3.91546 5.36644 3.91382 5.36077 3.91228 5.35532L5.36589 3.93451C5.38539 3.93962 5.4085 3.94595 5.43554 3.95379C5.56657 3.99182 5.74633 4.05197 5.97868 4.13702C6.44213 4.30665 7.08355 4.56375 7.90383 4.90957L7.90383 4.90958L7.90679 4.91081L8.00233 4.95053C8.16062 5.01635 8.3385 5.01697 8.49725 4.95225L9.49643 4.54494C9.66221 4.47735 9.79278 4.34438 9.85734 4.17739L9.8973 4.07402L9.89733 4.07404L9.89986 4.06727C10.4351 2.63542 10.7154 1.97668 10.886 1.67463C10.8909 1.66585 10.8956 1.65765 10.9001 1.65H12.9639C12.9701 1.66011 12.9768 1.67123 12.984 1.68343C13.1629 1.98823 13.4604 2.64852 14.0378 4.07813L14.078 4.17778C14.1441 4.3417 14.2741 4.47164 14.438 4.53766L15.4424 4.94213C15.6064 5.00816 15.7902 5.00456 15.9514 4.93218L16.049 4.88836L16.051 4.88747M19.7269 9.69006L16.051 4.88747M16.051 4.88747C17.2635 4.33831 17.923 4.07145 18.2835 3.94275C18.3912 3.90431 18.4674 3.87998 18.5199 3.86468L19.9751 5.28428M16.051 4.88747L19.9751 5.28428M19.9751 5.28428C19.9727 5.29367 19.9701 5.30372 19.9672 5.31446C19.875 5.65429 19.6101 6.32795 18.987 7.74119L19.9751 5.28428ZM11.9784 16.1045C9.55105 16.1045 7.55551 14.1654 7.55551 11.7554C7.55551 9.34489 9.55161 7.40843 11.9784 7.40843C14.4045 7.40843 16.4 9.34545 16.4001 11.7554L11.9784 16.1045ZM11.9784 16.1045C14.4051 16.1045 16.4001 14.1648 16.4001 11.7554L11.9784 16.1045ZM22.3062 10.541C22.3063 10.541 22.3063 10.5419 22.3064 10.5438L22.3062 10.541ZM22.3063 12.8711C22.3063 12.8711 22.3063 12.8703 22.3064 12.8689L22.3063 12.8711ZM20.1621 18.0393C20.1621 18.0393 20.1615 18.0401 20.1601 18.0416C20.1614 18.0401 20.1621 18.0393 20.1621 18.0393ZM18.4926 19.6733C18.4936 19.6723 18.4946 19.6713 18.4956 19.6704L18.4926 19.6733ZM13.2178 21.8594C13.2178 21.8594 13.217 21.8595 13.2152 21.8596L13.2178 21.8594ZM10.8397 21.8595C10.8397 21.8595 10.8404 21.8595 10.8418 21.8596L10.8397 21.8595ZM3.86795 18.1124C3.86798 18.1124 3.86854 18.113 3.86956 18.1142C3.86843 18.113 3.86792 18.1124 3.86795 18.1124ZM1.65062 12.9679C1.6506 12.968 1.65052 12.967 1.65041 12.9649L1.65062 12.9679ZM1.65058 10.6364C1.65059 10.6364 1.65055 10.6372 1.65041 10.6388L1.65058 10.6364ZM3.79549 5.47056C3.79544 5.47058 3.79613 5.46978 3.79767 5.4681C3.79631 5.46971 3.79553 5.47055 3.79549 5.47056ZM10.7421 1.65054C10.742 1.65053 10.7428 1.65046 10.7446 1.65038L10.7421 1.65054ZM13.1168 1.65051C13.1168 1.65052 13.1162 1.65049 13.1151 1.6504L13.1168 1.65051ZM20.0866 5.39408C20.0865 5.39407 20.086 5.3935 20.0851 5.39241C20.0861 5.39354 20.0866 5.39409 20.0866 5.39408Z" stroke="currentColor" stroke-width="1.3" stroke-linecap="round" stroke-linejoin="round"/>
</svg>
