<svg width="24" height="24" viewBox="0 0 24 24" fill="none" xmlns="http://www.w3.org/2000/svg">
<path d="M22.1247 5.25H17.9434L17.1821 3.05859C17.0797 2.76432 16.8883 2.50921 16.6344 2.32862C16.3805 2.14804 16.0767 2.05093 15.7651 2.05078H8.21442C7.90119 2.05072 7.59579 2.14874 7.34111 2.3311C7.08643 2.51346 6.89524 2.77099 6.79439 3.06755L6.05156 5.25H1.875C1.57673 5.25033 1.29078 5.36897 1.07987 5.57987C0.868969 5.79078 0.750335 6.07673 0.75 6.375V21C0.750335 21.2983 0.868969 21.5842 1.07987 21.7951C1.29078 22.006 1.57673 22.1247 1.875 22.125H22.1247C22.4229 22.1247 22.7089 22.006 22.9198 21.7951C23.1307 21.5842 23.2493 21.2983 23.2497 21V6.375C23.2493 6.07673 23.1307 5.79078 22.9198 5.57987C22.7089 5.36897 22.4229 5.25033 22.1247 5.25ZM21.7497 20.625H2.25033V6.75H7.1258L8.21442 3.55078H15.7651L16.8765 6.75H21.7497V20.625Z" fill="white"/>
<path d="M12 7.875C10.9431 7.875 9.90995 8.18841 9.03117 8.77558C8.1524 9.36276 7.46748 10.1973 7.06302 11.1738C6.65857 12.1502 6.55274 13.2247 6.75893 14.2613C6.96512 15.2978 7.47406 16.25 8.2214 16.9973C8.96873 17.7447 9.9209 18.2536 10.9575 18.4598C11.9941 18.666 13.0685 18.5602 14.045 18.1557C15.0214 17.7513 15.856 17.0663 16.4432 16.1876C17.0303 15.3088 17.3437 14.2756 17.3437 13.2187C17.3421 11.802 16.7786 10.4437 15.7768 9.44193C14.775 8.44013 13.4167 7.87661 12 7.875ZM12 17.0625C11.2398 17.0625 10.4966 16.8371 9.86453 16.4147C9.23242 15.9923 8.73976 15.392 8.44884 14.6897C8.15791 13.9873 8.0818 13.2145 8.23011 12.4689C8.37842 11.7233 8.7445 11.0384 9.28206 10.5008C9.81961 9.96325 10.5045 9.59717 11.2501 9.44885C11.9957 9.30054 12.7686 9.37666 13.4709 9.66759C14.1733 9.95851 14.7736 10.4512 15.196 11.0833C15.6183 11.7154 15.8437 12.4585 15.8437 13.2187C15.8426 14.2378 15.4373 15.2148 14.7167 15.9354C13.9961 16.656 13.0191 17.0613 12 17.0625Z" fill="white"/>
</svg>
