<svg width="20" height="20" viewBox="0 0 20 20" fill="none" xmlns="http://www.w3.org/2000/svg">
<path d="M8.23177 8.2325C8.70065 7.76362 9.33659 7.5002 9.99969 7.5002C10.6628 7.5002 11.2987 7.76362 11.7676 8.2325C12.2365 8.70138 12.4999 9.33732 12.4999 10.0004C12.4999 10.6635 12.2365 11.2995 11.7676 11.7683M8.23177 8.2325L11.7676 11.7683M8.23177 8.2325L11.7668 11.7667M11.7676 11.7683L14.5101 14.51M8.23344 8.23333L5.49177 5.49167M5.49177 5.49167L2.50011 2.5M5.49177 5.49167C6.8354 4.62464 8.40102 4.1645 10.0001 4.16667C13.7318 4.16667 16.8901 6.61917 17.9526 10C17.366 11.8587 16.1479 13.4538 14.5093 14.5092M5.49177 5.49167L14.5093 14.5092M14.5093 14.5092L17.5001 17.5M11.5626 15.6875C11.0475 15.7849 10.5244 15.8337 10.0001 15.8333C6.26844 15.8333 3.11011 13.3808 2.04761 10C2.33366 9.09008 2.77427 8.23622 3.35011 7.47583L11.5626 15.6875Z" stroke="#8A8A8A" stroke-width="1.5" stroke-linecap="round" stroke-linejoin="round"/>
</svg>
