<svg width="20" height="26" viewBox="0 0 20 26" fill="none" xmlns="http://www.w3.org/2000/svg">
<path d="M18.9062 20.5H18.2031V10.5391C18.2031 6.40527 15.1475 2.98926 11.1719 2.4209V1.28125C11.1719 0.633789 10.6475 0.109375 10 0.109375C9.35254 0.109375 8.82812 0.633789 8.82812 1.28125V2.4209C4.85254 2.98926 1.79688 6.40527 1.79688 10.5391V20.5H1.09375C0.575195 20.5 0.15625 20.9189 0.15625 21.4375V22.375C0.15625 22.5039 0.261719 22.6094 0.390625 22.6094H6.71875C6.71875 24.4199 8.18945 25.8906 10 25.8906C11.8105 25.8906 13.2812 24.4199 13.2812 22.6094H19.6094C19.7383 22.6094 19.8438 22.5039 19.8438 22.375V21.4375C19.8438 20.9189 19.4248 20.5 18.9062 20.5ZM10 24.0156C9.22363 24.0156 8.59375 23.3857 8.59375 22.6094H11.4062C11.4062 23.3857 10.7764 24.0156 10 24.0156ZM3.90625 20.5V10.5391C3.90625 8.91016 4.53906 7.38086 5.69043 6.22949C6.8418 5.07812 8.37109 4.44531 10 4.44531C11.6289 4.44531 13.1582 5.07812 14.3096 6.22949C15.4609 7.38086 16.0938 8.91016 16.0938 10.5391V20.5H3.90625Z" fill="#F99E42"/>
</svg>
