<svg width="24" height="24" viewBox="0 0 24 24" fill="none" xmlns="http://www.w3.org/2000/svg">
<path d="M0.875231 12.568L7.67445 19.3672C7.85153 19.5443 8.13837 19.5443 8.31541 19.3672C8.49248 19.1901 8.49248 18.9033 8.31541 18.7262L2.28994 12.7008L22.0466 12.7008C22.2972 12.7008 22.4999 12.498 22.4999 12.2475C22.4999 11.9969 22.2972 11.7942 22.0466 11.7942L2.28994 11.7942L8.31541 5.76875C8.49248 5.59167 8.49248 5.30483 8.31541 5.12779C8.22689 5.03928 8.11088 4.995 7.99491 4.995C7.87894 4.995 7.76297 5.03928 7.67441 5.12779L0.875189 11.927C0.698153 12.104 0.698155 12.3909 0.875231 12.568Z" fill="#767E85" stroke="#767E85" stroke-width="0.7"/>
</svg>
