<svg width="40" height="38" viewBox="0 0 40 38" fill="none" xmlns="http://www.w3.org/2000/svg">
<ellipse cx="20" cy="18.5714" rx="20" ry="18.5714" fill="#E1F7FE"/>
<g clip-path="url(#clip0_2735_20982)">
<path fill-rule="evenodd" clip-rule="evenodd" d="M26.345 19.7791L29.6375 20.4393C31.0295 20.7207 32 21.8419 32 23.1679V24.8393C32 25.2238 31.664 25.5358 31.25 25.5358H26.6C26.186 25.5358 25.85 25.2238 25.85 24.8393C25.85 24.4549 26.186 24.1429 26.6 24.1429H30.5V23.1679C30.5 22.5035 30.0155 21.9408 29.321 21.8015L25.4375 21.0215C25.091 20.9519 24.845 20.6677 24.845 20.3404V18.6411C24.845 18.4559 24.9245 18.279 25.0655 18.148C25.1615 18.0533 25.376 17.6564 25.5035 17.4182L25.5114 17.4036C25.7405 16.9794 25.9382 16.6134 26.177 16.393C26.5535 16.0546 26.945 15.6548 27.053 15.2035C27.1183 14.9087 27.0764 14.8319 27.0145 14.7184L27.0125 14.7147L27.0114 14.7127C26.9424 14.5873 26.84 14.4013 26.84 14.1422C26.84 13.5864 26.84 12.656 26.6615 12.0989C26.642 12.039 26.6315 11.9749 26.63 11.9122C26.6166 11.1163 26.4673 10.9701 26.3594 10.8643L26.3585 10.8634C26.3224 10.846 26.1493 10.8176 26.0229 10.7968C26.0074 10.7943 25.9927 10.7919 25.979 10.7896L25.977 10.7892C25.7105 10.7462 25.4083 10.6973 25.139 10.557C24.6905 10.3327 24.254 10.2255 23.7335 10.2143C22.9055 10.2492 21.989 10.6224 21.3905 11.1893C21.098 11.4651 20.624 11.4679 20.33 11.1991C20.033 10.9303 20.03 10.4887 20.3195 10.2143C21.1865 9.39394 22.457 8.87301 23.717 8.82147C24.527 8.83819 25.19 9.00115 25.859 9.33544C25.925 9.36608 26.1095 9.39533 26.2325 9.41483L26.234 9.41507C26.6313 9.4791 27.1254 9.55876 27.467 9.92601C27.905 10.3494 28.0985 10.8857 28.127 11.7952C28.34 12.5362 28.34 13.4959 28.34 14.1408C28.4675 14.2954 28.694 14.7021 28.52 15.4919C28.322 16.3206 27.725 16.939 27.227 17.3862C27.1565 17.4628 26.969 17.8096 26.8445 18.0408C26.678 18.3514 26.5175 18.6495 26.345 18.8821V19.7791ZM18.842 22.5662L22.136 23.2306C23.5055 23.5078 24.5 24.6527 24.5 25.9536V27.625C24.5 28.0095 24.164 28.3215 23.75 28.3215H8.75C8.336 28.3215 8 28.0095 8 27.625V25.9536C8 24.6527 8.9945 23.5078 10.364 23.232L13.658 22.5676V21.6636C13.487 21.4324 13.325 21.1399 13.1585 20.8349C13.1523 20.8237 13.1459 20.8122 13.1395 20.8005C13.0127 20.5719 12.8365 20.254 12.758 20.1719C12.227 19.6899 11.657 19.0854 11.48 18.2859C11.303 17.492 11.5265 17.0839 11.6465 16.8652L11.648 16.5254C11.63 15.6674 11.63 14.918 11.825 14.4166C12.5105 12.6504 14.5565 11.6657 16.2215 11.6072C17.0465 11.6267 17.7125 11.7924 18.368 12.1309C18.425 12.1574 18.614 12.1866 18.74 12.2061L18.7448 12.2069C19.1325 12.268 19.6144 12.344 19.9565 12.688C20.414 13.1505 20.6045 13.6881 20.6285 14.5921C20.8385 15.3414 20.8385 16.3624 20.8385 16.9223C20.9675 17.0825 21.191 17.4906 21.014 18.2859C20.837 19.084 20.267 19.6885 19.7315 20.1747C19.6552 20.255 19.4741 20.5873 19.3498 20.8155L19.3415 20.8307C19.175 21.1385 19.0145 21.4324 18.842 21.6636V22.5662ZM9.5 26.9286H23V25.9536C23 25.3032 22.502 24.7307 21.818 24.5928L17.933 23.81C17.588 23.7404 17.342 23.4562 17.342 23.1289V21.4199C17.342 21.2332 17.4215 21.0549 17.5655 20.924C17.66 20.8307 17.8745 20.4379 18.002 20.2025C18.236 19.7721 18.4385 19.4002 18.683 19.1802C19.0745 18.8236 19.4495 18.4364 19.544 18.0046C19.6142 17.6883 19.5728 17.6124 19.5103 17.4976L19.5095 17.4962L19.5064 17.4904C19.4388 17.365 19.3385 17.1788 19.3385 16.9209C19.3385 16.4446 19.3385 15.4515 19.16 14.8874C19.1405 14.8261 19.13 14.7634 19.13 14.7007C19.1195 13.9012 18.9725 13.7522 18.854 13.6324C18.824 13.6324 18.6275 13.6018 18.4895 13.5795L18.4767 13.5774C18.2099 13.5348 17.9092 13.4867 17.6405 13.3483C17.192 13.117 16.7705 13.0126 16.2305 13C15.143 13.039 13.691 13.7146 13.235 14.8888C13.1199 15.1873 13.1374 16.0035 13.1479 16.493L13.148 16.4975L13.154 16.9223C13.154 17.1835 13.051 17.3727 12.9835 17.4967L12.983 17.4976C12.92 17.6118 12.878 17.6884 12.9485 18.0046C13.043 18.4364 13.418 18.825 13.8095 19.1802C14.0484 19.3966 14.2497 19.7598 14.4831 20.181L14.495 20.2025C14.624 20.4379 14.84 20.8307 14.936 20.9254C15.068 21.0549 15.158 21.2416 15.158 21.4199V23.1289C15.158 23.4576 14.912 23.7404 14.567 23.81L10.682 24.5928C9.998 24.7307 9.5 25.3032 9.5 25.9536V26.9286Z" fill="#0396C2"/>
</g>
<defs>
<clipPath id="clip0_2735_20982">
<rect width="24" height="22.2857" fill="white" transform="translate(8 7.42859)"/>
</clipPath>
</defs>
</svg>
