<svg width="20" height="20" viewBox="0 0 20 20" fill="none" xmlns="http://www.w3.org/2000/svg">
<path d="M18.6168 8.86912L18.6105 8.86638L1.92773 1.94685C1.78741 1.88812 1.63472 1.86509 1.48332 1.87981C1.33192 1.89453 1.18653 1.94656 1.06016 2.03123C0.926639 2.11871 0.816966 2.23802 0.741006 2.37842C0.665046 2.51882 0.625182 2.67589 0.625 2.83552V8.09425C0.625074 8.31247 0.701273 8.52383 0.840463 8.6919C0.979653 8.85997 1.17311 8.97422 1.3875 9.01495L7.98633 9.86404C8.02208 9.87082 8.05435 9.88986 8.07756 9.91789C8.10077 9.94591 8.11348 9.98116 8.11348 10.0176C8.11348 10.0539 8.10077 10.0892 8.07756 10.1172C8.05435 10.1452 8.02208 10.1643 7.98633 10.1711L1.38789 11.0202C1.17356 11.0608 0.980115 11.1749 0.840862 11.3428C0.70161 11.5107 0.625273 11.7219 0.625 11.9401V17.1996C0.624896 17.352 0.662638 17.5021 0.734839 17.6363C0.80704 17.7706 0.91144 17.8848 1.03867 17.9687C1.19172 18.0704 1.37133 18.1248 1.55508 18.125C1.68282 18.1249 1.80925 18.0992 1.92695 18.0496L18.6094 11.1695L18.6168 11.166C18.8414 11.0695 19.0327 10.9093 19.1671 10.7051C19.3016 10.501 19.3732 10.262 19.3732 10.0176C19.3732 9.77314 19.3016 9.53408 19.1671 9.32996C19.0327 9.12585 18.8414 8.96562 18.6168 8.86912Z" fill="#F99E42"/>
</svg>
