<svg width="48" height="48" viewBox="0 0 48 48" fill="none" xmlns="http://www.w3.org/2000/svg">
<path fill-rule="evenodd" clip-rule="evenodd" d="M47.091 7.61998L36.591 3.11998C36.21 2.96098 35.787 2.96098 35.406 3.11998L24.906 7.61998C24.357 7.85698 24 8.39998 24 8.99998V15C24 23.253 27.051 28.077 35.253 32.802C35.484 32.934 35.742 33 36 33C36.258 33 36.516 32.934 36.747 32.802C44.949 28.089 48 23.265 48 15V8.99998C48 8.39998 47.643 7.85698 47.091 7.61998ZM45 15C45 21.927 42.708 25.74 36 29.76C29.292 25.731 27 21.918 27 15V9.98998L36 6.13198L45 9.98998V15ZM45 31.4995C45 30.6715 45.672 29.9995 46.5 29.9995C47.328 29.9995 48 30.6715 48 31.4995V41.9995C48 43.6555 46.656 44.9995 45 44.9995H3C1.344 44.9995 0 43.6555 0 41.9995V14.9995C0 13.3435 1.344 11.9995 3 11.9995H19.5C20.328 11.9995 21 12.6715 21 13.4995C21 14.3275 20.328 14.9995 19.5 14.9995H3V20.9995H19.5C20.328 20.9995 21 21.6715 21 22.4995C21 23.3275 20.328 23.9995 19.5 23.9995H3V41.9995H45V31.4995ZM7.5 29.9995H13.5C14.328 29.9995 15 30.6715 15 31.4995C15 32.3275 14.328 32.9995 13.5 32.9995H7.5C6.672 32.9995 6 32.3275 6 31.4995C6 30.6715 6.672 29.9995 7.5 29.9995ZM39.3297 12.5608C39.8517 11.9158 40.7937 11.8168 41.4387 12.3268C42.0867 12.8458 42.1887 13.7878 41.6727 14.4358L35.6727 21.9358C35.3847 22.2958 34.9527 22.4998 34.4997 22.4998H34.4367C33.9567 22.4758 33.5187 22.2298 33.2517 21.8308L30.2517 17.3308C29.7927 16.6438 29.9817 15.7108 30.6687 15.2518C31.3497 14.7958 32.2827 14.9788 32.7477 15.6688L34.6137 18.4588L39.3297 12.5608Z" fill="#0396C2"/>
</svg>
