<svg width="24" height="24" viewBox="0 0 24 24" fill="none" xmlns="http://www.w3.org/2000/svg">
<path d="M5.6957 3.00943C4.20977 3.00943 3.00977 4.21412 3.00977 5.69537C3.00977 7.18131 4.21445 8.38131 5.6957 8.38131C7.18164 8.38131 8.38164 7.17662 8.38164 5.69537C8.38633 4.20943 7.18164 3.00943 5.6957 3.00943ZM5.6957 7.42974C4.73945 7.42974 3.96133 6.65162 3.96133 5.69537C3.96133 4.73912 4.73945 3.96099 5.6957 3.96099C6.65195 3.96099 7.43008 4.73912 7.43008 5.69537C7.43008 6.65162 6.65664 7.42974 5.6957 7.42974Z" fill="#9598A3"/>
<path d="M11.4609 1.39687C10.9734 0.857812 10.2891 0.567188 9.55313 0.567188L4.52344 0.515625C3.45 0.515625 2.42344 0.904687 1.6875 1.6875C0.904687 2.42344 0.515625 3.45 0.515625 4.52344L0.5625 9.55781C0.609375 10.2422 0.857813 10.9266 1.39219 11.4656L13.4156 23.4844L23.4844 13.4156L11.4609 1.39687ZM13.3688 22.1156L2.02969 10.7766C1.6875 10.4344 1.49062 9.99375 1.49062 9.50625L1.44375 4.52344C1.44375 3.74062 1.78594 2.95781 2.325 2.37187C2.91094 1.78594 3.69375 1.44375 4.52344 1.44375L9.50625 1.49062C9.99375 1.49062 10.4344 1.6875 10.7766 2.02969L22.1156 13.3688L13.3688 22.1156Z" fill="#9598A3"/>
</svg>
